<svg xmlns="http://www.w3.org/2000/svg" xmlns:xlink="http://www.w3.org/1999/xlink" viewBox="0 0 775 423"><defs><style>.cls-1,.cls-2{fill:none;}.cls-1{clip-rule:evenodd;}.cls-3{clip-path:url(#clip-path);}.cls-4{clip-path:url(#clip-path-2);}.cls-5{fill:green;opacity:0.1;}</style><clipPath id="clip-path" transform="translate(-36 -2818)"><path class="cls-1" d="M385.67,2937.19c-.16.71.29,1,1,.94-.63,1.32-1.84-.17-2.39-.83.07-.12.14-.26.25-.44l.53.43c0-.2,0-.39.05-.59C385.46,2936.7,385.51,2936.9,385.67,2937.19ZM193.06,2878.6c-.24.26-.69.27-.93.52-.82-1.84-1.24-1.48-3.12-1.51l2.86-1.91c-.34-.12-.59-.49-.91-.62l1.41-.87c-1.07-.57-1.53-1-2.66-.65s-1.63.72-2.78.15-1.7-.13-2.88-.07c-.49,0-1.2,1.2-1.6,1.59.48.21,2.65.79,2.65,1.31,0,1.1,0,2.5-1.51,2.22-.7-.13-1.54-1.79-2.26-1.54s-1.92,1-1,1.72c1.78,1.44,3.87,1.92,5.34,3.77.68.85,1.21,2,2.22,2.19.83.17,2.19-.5,1.84-1.56,1.4.62,5.26-2,2.73-2.86a6.15,6.15,0,0,1,1.15-.43C193.45,2879.57,193.26,2879.09,193.06,2878.6ZM383,2937.14c.08.3-.36,1,.3,1.56a2.48,2.48,0,0,1,.35-1.8,2.6,2.6,0,0,0-.87-.11C382.71,2937.07,382.85,2937,383,2937.14Zm-148.36-36.3c.72.64,2.81,1.85,3.61.56s.17-2,.67-3.29C237.22,2895.75,232.73,2899.12,234.63,2900.84Zm12.56-15.68c-.59-1.94-3.07-1.65-4.43-1.16-.81.29-2.78-2.83-3.59-3.61a6.84,6.84,0,0,0-4.43-1.73c-.65.09-2.08,0-2.56.43s-1.46,1.75-1.85,1.51c-1.38-.83-1.27-.89-2.44.27-.64.65-1.57.65-1-.45.7-1.31.87-1.35.22-2.68-.46-1-.82-.84-1.36-1.58s-.29-1.87-1.19-1.92a6.67,6.67,0,0,0-2.39-.11,24.48,24.48,0,0,1-4.88,1.67c.16-.61.31-1.23.46-1.86a9.47,9.47,0,0,0-6,.73,6.28,6.28,0,0,0-3.64,3.94c-.29.75-1.3,2.4-1.18,3.2.08.38.32,2.86.56,2.88,2.31.24,3.82,0,5.49,1.77-1.67-.15-3.34-.28-5-.44a7.51,7.51,0,0,0,3.16,3c.94.55,1.39-.19,2.16-.27,1.75-.16.48.32,1.43,1.19a5.47,5.47,0,0,0,2.38.63c1.62.08,3.77-.28,5.27.3l1.57.61c.32.12.54-.71.82-.68.78.09,1,1.2,1.86.88l-1.94-1.82c2.58.73,4.17,1.33,6.75.71-.48-1.05-.63-1.59-1.72-1.9,1.36-1.28,1.24.73,2.21,1.19.34.16,1.24-.39,1.33.11s.23,1.08.32,1.62c1.18-1.23,3.27,1.51,4.23,2.3-1.79.52-2.14.23-2.14,2.28l2.45-.93c1.08-.42,1-.52,1.61.57.81,1.4,2.57,1,3.43,2.53q.83,1.54,1.68,3.09c.26.49-.33.75-.68,1.1l-4,4c.41.31,2.1,1.15,1.79,2-.14.36-2.54.72-2.93.84-1.55.44-3.37-.17-5-.37.2,1.08-1.22,1.36-1.73,2.26-.36.67.76,2,1.48,2,1.08-.06,2.39.2,3.22-.58s1.86-.12,2.84.11c0-.33.19-.7.14-1,.68-.1,1.09.28,1.09,1,1.71-1.12,1.68-.08,2.78,1.62.61.94,1.75.83,2.74,1.38-.57.28-1.16.57-1.73.87a4.72,4.72,0,0,0,2.73,1c-.12.2-.24.38-.36.56l3.27.84c.46.13.42,1.11,1.2,1.3l6.43,1.65c.13-1,.44-1.42-.34-2s-1.59-1.14-2.38-1.69c-.5-.35-1.7-.24-2-.79-.43-.75-.86-1.51-1.3-2.26l2.3,1c-.17-.33-.19-.77-.36-1.11l3.93,2.46c.71.45,1.92,2,2.38,1.89-.17-.45-.34-.89-.5-1.34.22.15.55.12.79.24.49-1.17-1.16-1.48-.51-2.61l1.08,1.42a10.12,10.12,0,0,0-.36-2.85c-.45-.74-1.33-.4-1.55-1.41-.24-1.21-.12-1.49-1.14-1.95-.81-.37-1.48-1-1.75.37-.29-.88-.57-1.74-.84-2.6-.35-1-.55-.59-1.45-.25-.21-.6-.39-1.2-.59-1.81l1.8.23c-.06-1.17-1.32-1.09-.61-2.17.48-.72,1-.63,1.83-.19s1.34,1.72,2.08,1.9c.53.11,1.69-.61,2.22-.8.38,1.31-.89,1.43-1.72,1.81a10.36,10.36,0,0,0,4.16,3.33,9.15,9.15,0,0,0-.07-3.72c1.57,1.09,2.21.24,3.86-.62-.55-.27-1.09-.54-1.65-.8.48-.61,1.6-.11,2.3,0,.18-1.54.73-2.45-.71-3.08-.88-.38-2.56.06-3.52.08l.93-1.42c-1.42-.21-2.07-.15-3.06-1.24a4.94,4.94,0,0,0-2.35-1.73c-2.33-.89-4.64-1.77-6.92-2.8l1.94-.23c-.1-.61-.19-1.21-.29-1.82l2.73.55c-.53-1.48-.42-1.43-1.83-1.18a4.2,4.2,0,0,1-2.18-.56,4,4,0,0,1,3.14-.82c0-1.16-1.2-1.7-2-2.22-.19,1.16-1.35,1.39-2.18,1.82.3-1.2-.6-1-1.4-1.14,1-.32,2.74-.33,3.11-1.59-.9-.46-5.4-3.4-5.95-2.15-.44,1-2,2.05-2.45.76C244.61,2886.35,246.7,2885.45,247.19,2885.16ZM180,2863.87a2,2,0,0,0-1.39.66h1.82c-1.93,1.34.78,1.43,1.7,1.23,1.43-.31,2.88-.43,4.33-.6a1.09,1.09,0,0,1-1.19.7,4.68,4.68,0,0,1,.37.29,1.49,1.49,0,0,0-1.48.64,3.88,3.88,0,0,1,1.7.42,6.78,6.78,0,0,0-1.09.14c.12,1,.87.88,1.62,1.13.42.14.63-.56,1-.52,1.15.07,2.69.59,3.65-.37-.37-.18-.65-.58-1-.75a1.3,1.3,0,0,0,.54-1.22c.2.2.53.28.74.49.18-.83-.35-1.08-.41-1.76s.3-1.24.26-1.8a3.5,3.5,0,0,0-1-1.61c-.45-.18-1.37-.79-1.81-.53-1.31.8-2.33-.32-4,.29s1.17.8,1.36,1.6c-.32-.07-.67.08-1,0l1.36,1.85c-.62-.35-5.11-4.63-4.9-1.68l1.29.05c-1,.39-.77,1.41.27,1.1C182.58,2864.56,180.88,2863.73,180,2863.87Zm.09,28.55c.3-1.78,1.24-1.3,2.15-.52.09-.27.35-.47.44-.74,1.32,2,1.13-.65,1.05-1.58-1.45.3-3.16-.74-4.68-1.67-.56-.33-2.7-1.15-3-1.81s.5-1.64.14-2.53c-.86-2.09-1.4-5.22-3.32-6.28-.81-.45-1.53-1.63-2.14-.69-.28.42-1.75-.65-2.18-.86.51.82-.45,1.06-.26,1.58l.6,1.69c.44,1.27.89,2.52,1.34,3.78-.88.35-1.35,1-1.71-.08s-.79-2.31-1.17-3.47c-.55-1.6-3.27-1.69-4.43-1.5l2,2.1c-.45-.12-2-.77-2.2-.35-.62,1.07-.7,1-1.86,1l.91-1.22c-.8-.38-3-2-3.82-1.79-.53.14-.7,1.44-1.31,1.48l-1.89.16c1-.85,2.09-2,.6-2.85-1.1-.64-1.58-.19-2.79.27a20.33,20.33,0,0,0-6.42,3.47c.33.06.62.4,1,.48-.85.79-2.25,1.51-2,2.95h2.15c-.16.23-.19.59-.34.83l4.54-.15c-1.57.71-3.15,1.4-4.73,2.1.95.94,1.22,1.48,2.45,1.46l4.79-.06a24.71,24.71,0,0,1,6.6,1.1c1.6.41-1,.87-1.56.87a29.22,29.22,0,0,1-3.71-.49c-1.93-.25-4.41.83-6.31,1.23,1.11,3.84,4.8,3.21,7.87,3.37-.18,1.92.25,2.93,2,2.8l6.49-.51c1.48-.1,2-1.14,3.49-1.39a3.42,3.42,0,0,0,2-.84c.62-.5.65-1.3,1.53-1-.14.26-.1.64-.24.89l3.1.64c-.2.13-.36.34-.57.47,1.74,0,3.38,1,5.12.79.45-.05,2.2-.6,2.2-1.07,0-.79-1.09-.61-.38-1.62-1.17-.32-1.92.36-2.73,1.16,0-.83.2-1.53-.44-2.16a4.82,4.82,0,0,1,.86.11A3.61,3.61,0,0,0,180.08,2892.42Zm6.65,2.16a3.32,3.32,0,0,0,.88.76c.16-.4.32-.28.49-.5a1,1,0,0,0,.91.86c.06-.16.11-.33.18-.49.44,1.29,2.46,1.42,3.55,1.62s2.24-.95,3.22-1.58a33.69,33.69,0,0,0-4-3.18c-.82-.54-1.47-1.47-2.22-.7-.56.56-1.49,1.25-.52,2l-.51.12C188.19,2894.45,187.26,2893.56,186.73,2894.58ZM384,2935.85l-.41.18c.08.14.15.29.22.43.53-.48.75-.78,1.36-.92l-.31-.41c.9-.1.79-1.33.38-1.14C384.57,2934.32,382.71,2934.89,384,2935.85Zm-156.06-20.79c-1.43-1-1.7-1.14-3.4-.89,1.52-1.51-2.41-3.46-3.16-4-.57-.4-1.49-.21-2-.73-.73-.8-1-1.12-1.75,0a2.67,2.67,0,0,1-.43-.9c1.56-.27,1.06-2.42-.26-1.83s-1.3,1.78-1.72,3.31c-.17.63-.26,1.28-.38,1.91-.09.45.37,1.17.21,1.56s-1.77,1.62-2.15,2.21a24.4,24.4,0,0,1,3.15-.57c.3.19.5,2.79,1.07,2.39.83-.59,1.51-1.8,2.26-2.07,1.24-.46,1.1-1.47,2.35-2-.27,2,3.13,2.42,4.35,2.79Zm-25.17-45.87c.49,1.09,1.91.09,2.56-.36.52,1.08.48,1.25,1.56,1.35.91.09,1.72.44,1.93-.87.15.29.48.5.62.79,0-.45.22-.91.24-1.36,1.16.48-.08,1.91,1.23,2l3.93.18c-.06-.29,0-.65-.05-.94.71.94,2.49,1.32,2.87-.12.36,1.44,2.36.52,3.35.37-.11-.54-.19-1.08-.29-1.62,1.36,0,.62,1.48,1.61,1.83a4.47,4.47,0,0,0,2.37.47c.53-.09,3-.13,3.14-.7.36-1.23.76-1.13,1.91-1.5a3.27,3.27,0,0,0-1.87-.73l1.58-1.17c-2-1.73-4.6-3.08-7.23-2.22-1.11.37-2.06-.2-3.26.22a24.62,24.62,0,0,1-3.46.95c.25.17.45.44.71.58-1.19-.27-2.9-1-4.11-.89-.36,0-1.09.74-1.42.53-.57-.37-1.15-.75-1.74-1.11-.32-.21-2.74-1.57-2.76-1.63-.22-.78,2.18.16,2.43-1-.68-.18-1.36-.38-2.05-.58-.93-.26-.49-.75-1.19-1.21-1.23-.78-2.51.31-3.79.05s-1.92-1.38-3.1-1.55-2.92-.83-4.2-.46c-2.11.6-1.47,1.45-.11,2.81s2.12,1.08,3.78.85c1.43-.2,2.1-.72,3.12.48.63.73,2.31,2.11,1.24,3.14C201.68,2867.37,202,2867.64,202.76,2869.19Zm37,29.55c-.8.9,2.49.89,2.78.9A1.59,1.59,0,0,0,239.77,2898.74Zm-30.15-64.12-3.08,2.6c1.73,1.25,3.57.24,5.61.17a27.4,27.4,0,0,0,5.64-1.27,11.7,11.7,0,0,1-4.8,1.65,11.44,11.44,0,0,0-4.52.87c1.77.49,3.57,1.64,5.18.55a8.74,8.74,0,0,1,5.36-1.73,10.45,10.45,0,0,0-4.81,2.62,35.93,35.93,0,0,0,4.5.46c1.22,0,1.36.28,1.51-1.07.06-.47,1.4-.63,1.81-.74-.24.23-.41.56-.65.79l2.88-.88-2.16,1.82,3.56-.68c.73-.14,2.54-.1,3.12-.66a17.32,17.32,0,0,1,5.66-3.48c-1,.88-1.91,1.75-2.87,2.61l1.79.8c-3.82,1-7.6,1.8-11.47,2.52l3.87,3.55c-1.64-1-3.65-2.84-5.45-3.31-.31-.08-5.53-.08-5.47-.23-1.58,3.06,1.5,2.85,3.18,4a13.41,13.41,0,0,1,3.8,4.59c-2.44-1.29-6.38-1.69-8.56.52-2,2-.17,2.15,1.73,2.56,1.33.29,2.36-1.4,3.34-2.32-.72,2.15-2.61,3.39-.32,5,1.81,1.3,3.95-1.37,5-2.5-1.73,2.46-2.87,4.19-5.92,3.39-1.24-.33-1.35-2-2.43-2.19a6.26,6.26,0,0,0-3.69.23c.91,1.66.92,1.82,2.68,2-1.22,1.26-1.95.89-3.43,1.52-.51.22-1.72.45-2.07.9s.59.87-.14,1.33c.95,1.25,1.28.35,2.1-.6.05,1.46,2,2.48,2.53.85.25,1.42,1.13.66,2.07.75a27.6,27.6,0,0,0,2.86.25c1.11,0,1.4-1,2.2-.76s1.88.75,1.61-.61c.46,1,2.5,2,2.59.26.9,1,1.38-.25,2,.24.89.69.52,1.06.24,2.19l3.8-1.16c.39-.13.57-.84.93-1,.13-.06.51.55,1,.38.3-.1,1.35-.25,1.3-.66s0-1.49-.38-1.73c-.69-.41-.85-.71-1.53-.3s-.81.75-1.36-.07,1.85-2.39,2.27-2.76c1.27-1.11-.75-1.69-.12-2.21.46-.37,2.18.74,2.95.48a4.58,4.58,0,0,0,2.87-2.14l-2.17-1.18,3.8-.48c.15-1.57-3.18-1.69-4.23-2h4.38c.35-1.76-3.85-1.26-4.94-1.36,2.65-.3,5.31-.56,7.95-1.09-.15-.48-.28-1-.43-1.42.94.24,2.19.94,3.09.47a8.73,8.73,0,0,0,2.93-2.3c-1,0-1.91-.1-2.87-.16,1.53-.3,3.06-.61,4.6-.94,1.32-.26,2.93-1.79,4.09-2.5,1.58-1,6.75-2.32,6.87-4.22l-11.76,2.37,7.17-2.13-4.16-.71,9.21-.69c2.2-.15,4.95-2.47,6.95-3.52a47.7,47.7,0,0,0-8-2.12c-2.43-.45-4.63.33-7,.86,1.31-.75,2.61-1.48,3.92-2.21a54,54,0,0,0-7.46-1.06c-2.29,0-4.86.76-7.16,1.06l.95,1.89c-1.11-.75-2.58-2.29-3.9-2.33-1.92,0-3.84-.05-5.75-.09l3.44,2.84-4-1.65c-.73-.3-3-.93-3.69-.66-.55.19-.68.92-1.31,1l-2.65.16c-1,.07-2.06,1.47-2.84,2.14l6.8,3.66-7.52-1.86c-1.08-.29-2.35-1.53-3.31-2.16-.74-.49-2-.25-2.83-.28.18.5.38,1,.59,1.49-1,0-1.92.06-2.87.09l2,1c-2.53.16-5.9-1.28-7.24,1.66-1.74-1.51-3.9-.34-5.74.71l3.52,1.65ZM183.84,2855c-.74-1-1.69-.8-2.68-.6-1.15.23-.43,1,.39,1S183,2854.79,183.84,2855Zm44.89,68.2c.61-.59,2.52-2.51.68-3.11-.77-.25-1.54.67-1.61,1.33C227.71,2922.41,228.11,2922.56,228.73,2923.23ZM378,2955.79c-.24.13-.4.46-.64.59,2,1.66,4.61-1.41,6.49-1.93.64-.17,1.11.41,1.35-.38l.66-2.15a3.26,3.26,0,0,0-.83-2.76c1.32-.92,1.73-.95,1.87-2.64-.67.22-.85-1-1.38-1.63-.32-.38-1.53.17-2,.28l.32-.55c-1.5-.88-3,.79-3.7,2l1.45.52c-.61.47-.92,1-1.65.78-.48-.14-1.17-.52-1.63-.26-.82.45-.58.55-.3,1.51.13.46-.62.94-.91,1.24a6.4,6.4,0,0,0,2.47.76,14.41,14.41,0,0,0-2,2.12,4.72,4.72,0,0,1,2.56-.27c-.57.12-1.75.11-2.11.62a2,2,0,0,1-1.41.92c.35,0,.68.27,1,.31a10.08,10.08,0,0,1-1.08.56Zm-158-35.68c.09.25.22,1.07.51,1,1.77-.15,3.79-.92,4.07-3.14l-1.33-.05a4.69,4.69,0,0,0-2.69.95C219.91,2919.41,219.69,2919.34,220,2920.11Zm-20.34-52.24c-.22-1.17-1.54-3-2.81-2.54-.74.22-4.43.87-3.82,2.72.26.74,3.13,1.77,3.83,2.15C198.46,2870,200,2870.22,199.61,2867.87Zm-24.55-18.3c1.1.13,1.45-1.52,2.44-.53-.21.14-.36.41-.58.53l1.68.32c.18,1.87-2.4.41-3.54,1.16.36,3.22,4,.07,4.63.84s2.07.68,3.09.81,1.09.7,1.63,1.68,4.93.75,2.72-1.77c-.33-.35-1.1-.88-.95-1.4.21-.72.29-.68-.24-1.11-1-.79-1.23-.63-2.42-.43.4-2.36-2.55-1.16-3.34-.73-.61-1.4-1.34-2.5-3-2.27-1.83.26-2.81-.13-3.47,1.8l1.86-.06A10.24,10.24,0,0,0,175.06,2849.57Zm.51,8.49c.51.6,1.15-.33.6-1a8.3,8.3,0,0,0-1.21-1.18c-.66-.5-1.21-1.22-2.07-.83.16.61.32,1.21.47,1.82C174,2857.4,175.2,2857.62,175.57,2858.06Zm12.8-14.86c-.51-1.27-3.63-.93-2.69.84C187.06,2844.58,189.45,2845.94,188.37,2843.2Zm4.09,9.92c-.6.29-1.27.17-1.89.45.53.23,1.49,1.25,1.7,1.25a7.57,7.57,0,0,0,1.92-.41c.67-.19,1.92-.2,2.32-.87s-.56-.92.3-1.79c-.77-.27-1.83-.26-2.45-.52s-1.18-.94-1.87-1.21c-1-.42-4.54-1.07-2.56,1l-.67.1C189.74,2853,191.4,2852.08,192.46,2853.12Zm-32.31.71c-2,.31-2.84-.06-2.43,2.3.88,0,1.64,1.25,2.38,1l3.57-.9c.84-.22.41-.53.62-1.14s-1.33-.09-1.63-.65c1-.22,2-.24,2.68-1.15C163.86,2852.69,161.62,2853.59,160.15,2853.83Zm3.6,8.21,2.32,1.42-1.57.64c.49.21,2.51.72,2.43,1.3-.18,1.24-1.36.65-2.4.59-.52,0-2.7.2-2.84-.42-.32-1.38-.48-1.25-1.77-1.13l.63-.34c-.84-.67-1.89-2-3-1.87-1.95.35-1.24-.42-2.82-1-.31-.11-2.74.09-2.77.69s2,.82,2.45.95c-1.61-.12-2.77-.32-4.25.33v.79c1,.6,2.8.13,3.94.1-.52.35-5.13.08-5,1.22s4-.11,4.5-.24c-1.49,1.24-4.57.33-5.51,2.12a4.64,4.64,0,0,0,3.13.24,6.25,6.25,0,0,1-.16.62,12.58,12.58,0,0,0,1.6.43c-.39-1.12.85-.93,1,.15,1.35-.83,1.59-.94,2-2.56,1,.33.59,1.07.41,1.93.78-.06,2.58.3,2.68-.8.48,1.13,2.36.56,3.17,0-1.56,1.67-4.78,1.95-7,2.71,2.67,1.72,3.77,1.16,6.62.13l4.78-1.73c.93-.33,1.43.54,2.31.48.44,0,.5-.82,1.23-.82h2.28c1,0,1.43-1.19,1.67-2.25.3-1.32.17-2.56-1.58-2.32-2.1.3-.35.9-1.17,2-.32-1.09-.68-1.26-1.61-1.54-.59-.19-.72-1.31-1.22-1.71-1-.83-.24-3.29-2.36-2.42A9.81,9.81,0,0,1,163.75,2862Zm29-19.13c.3,2.49,3,2.49,4.66,1.82-.56.86-1.36.79-2.22.92s-.46,1,.18.9.57,1.13,1.33.54c.54-.42.88-.84,1.56-.58,0,.17-.06.37-.1.54.75.41,1-.23,1.66-.54.18-.1.92.81.7-.4,1.21.49,3.25-.13,4.09.63-1,.14-2,.26-3,.39,1.49.61,3,.29,4.55.21-2.85.53-5.45.32-8.17,1.42a7.59,7.59,0,0,0,2.59,1l-1.44.11c.79,1.2,3,.78,4.33,1.08l-2.72.31c1.19,1.91,3.88,1.56,5.7,1.66a1.35,1.35,0,0,0-.93-1c1.21,0,1.72.47,2.68,1.23l-1.32-2.7c.9.89,1.8,1.75,2.69,2.62.39-1,.7-1.54,0-2.53,3.77,2-.34-1.58,2.19-2.32a3.19,3.19,0,0,0,.43,2.2c.69-.59,1.74-1,1.25-2,.66.57,3.32-.86,4.41-1.19a7.49,7.49,0,0,0-1.79-1.93c-.1.35-.42.63-.5,1-.14-1.88-2.17-.75-3-.4,1-1.88,1.46-2.72-.87-3,1.45-1.25-.59-2.82-1.9-1.7.29.5.58,1,.86,1.5a2,2,0,0,1-1.9-.91c-.25-.42.43-1.69-.67-1.36a2.88,2.88,0,0,1-3.05-1.12c-1.3-1.47-2-2.66-3.81-3.13-1.08-.29-2.84-.9-3.65.28,1,.36,2.1,0,3,.51-.92,1.61-4.16-.71-5.15,1.85.8.27,2,.12,2.64.67-.77.17-4.46.31-3.32,1.51-.57.2-1.16.41-1.72.63a10.53,10.53,0,0,0,2.53.48c-.15.08-.31.17-.46.27.94.44,1.93-.59,2.76,0-.32.07-.59.39-.9.47.22.17.39.45.61.59a9.17,9.17,0,0,1-1-.27C195.22,2843,194,2843,192.74,2842.91Zm-16.42,19.9c.74.87,4.19,1.14,3.87-.67C179.25,2862,177,2862,176.32,2862.81Zm-28,.21c-.64.17-4.05,1.51-3.68,2.48.27.7,1.92.41,2.28-.07S148.55,2863.88,148.33,2863Zm237,75.76-.28.18.24.27C385.23,2939.08,385.44,2939,385.29,2938.78ZM170.87,2875.4a4.24,4.24,0,0,1,2,1.28c.71.66,1.11,1.42,2,1a2.76,2.76,0,0,0,1.21-2.12c0-1-.66-1.1-1.48-1.64C173.23,2874.23,171.49,2873.7,170.87,2875.4Zm7.3-7.8c-.54-1.5-1.27-1.3-2.46-.88C174.3,2868.68,177.46,2867.92,178.17,2867.6Zm-2.34-6.92c.34.69.52.65.6,1.3,1,.07,2.21.35,3-.48l-1.41-.9A2.56,2.56,0,0,0,175.83,2860.68Zm23.52-4.11,1-1.42a8.31,8.31,0,0,0-6.64.36C194.16,2857.16,198.08,2856.51,199.35,2856.57ZM228,2877.79a5.68,5.68,0,0,0,1.46.88c.73.43,3-.57,3.87-.76a14.59,14.59,0,0,1,3.42.14,11,11,0,0,0-4.41-3.53c-.64-.34-1.57.17-2.26-.09l-2.46-.9a1.43,1.43,0,0,0-.35,2.7C228.23,2876.72,227.41,2877,228,2877.79ZM204.64,2856c-.79.72.82,1.34,1.2,1.54.72.38,1.41-.06,2.16-.29C207.9,2855.61,205.61,2855.1,204.64,2856Zm1.44,3.69c-.77.59,1,1.76,1.68,1.49-.16-.22-.2-.62-.32-.79C208.37,2859.74,206.64,2859.26,206.08,2859.69Zm507,10.14a17.17,17.17,0,0,0,6.6-.75,3.27,3.27,0,0,0,.23-1.56c-.13-.25-1.45-.44-1.7-.51a4.09,4.09,0,0,0-3.08.2c.08-.29,0-.62,0-.9-1.12,0-2.25-.37-3.19.47-.08-2.25-2.68-.83-2.39.53C709.74,2868,712.47,2869.39,713.09,2869.83ZM509.86,2885a7.37,7.37,0,0,0,4.77,2.51c1.64.11,5.07,1.15,6.51,0-2.28-1.58-4.16-2.93-4.24-6.14-.06-2.52,2.35-4.66,3.76-6.32.86-1,1.63-2.1,2.43-3.16s2.42-1.54,3.38-2.16c1.87-1.19,3.13-2.7,5.22-3.34,2.52-.78,5.07-1.5,7.57-2.37,1.26-.42,6.3-1.32,6.5-3.57.24-2.72-4.93-1.55-5.86-.79-2.07,1.68-4.41,2-6.9,2.74a14.73,14.73,0,0,0-6,1.05c-1.65.67-4.33,1.16-5.69,2.37a56.53,56.53,0,0,0-4.51,4.25c-1,1.09-2,2.19-3,3.28-.76.86-.33,1.41-.07,2.58.09.46-2,1.65-2.42,1.92-1.35,1-.1,1-.76,2.34-.47.94-1.9.51-2,1.79C508.52,2883.67,508.7,2883.7,509.86,2885Zm4.54-43.44c-2.36-.87-2.43-.73-4.45.89l2.88.37Zm8.94-5.59-1.67-1.47,3.4-.84c-1.88-.34-2.62-.74-4.2.38-1.25.89-2.5,1.76-3.79,2.57l3.49.48Zm-.05,53.39c.34.86,3,3.09,4,2.27s-2.33-2.67-2.78-3Zm3-46.06c-.45-1-1.44-.35-2.19-.16a9,9,0,0,0,1,.78Zm-4.11-4.75a12.9,12.9,0,0,0-4.29-1c-2.1.09-2.84-.19-4.26,1.5l4.15,1.1C519.55,2839.8,520.77,2839.67,522.19,2838.51Zm-20.93,1.27-3.06,2a13.65,13.65,0,0,0,5,.79c-.16-.56-.31-1.12-.48-1.68l6-1.42c-1.09-.74-1.82-1.38-3.15-1s-2.47.88-3.74.57c-2.71-.66-4.52.16-7.21,1l2.78.73Zm1.1,55.71c.69.68,2.78-1.16,3.3-1.54a4.87,4.87,0,0,0-2.68-1.37C501.4,2893.22,501,2894.1,502.36,2895.49Zm-57.7-5.59a6.79,6.79,0,0,0,4.79-2.56c-.95,0-1,.85-1.72,1.23a7.41,7.41,0,0,1-2.45.25C445.67,2889.42,445.29,2889.77,444.66,2889.9ZM160.33,2852c1,.58.9-.23,1.73-.34.65-.07,4.44,1.35,4-.6-.29-1.19-3.28-1.13-4.06-.88-1.28.4-3.66.57-4.51,1.82l.5.35C158.64,2852.19,159.68,2851.63,160.33,2852Zm363-11.39c-.53,0-6,.23-5.5,1.77s4.26.37,5.6.12c-.22-.18-.31-.54-.53-.73l2-.31C524.35,2841.18,523.82,2840.91,523.29,2840.62Zm168.58,28.17c.75.49,1.51,1.29,2.39,1.22,1.48-.12,1.42-.2,2-1.69,1.13,1.78,2.79.28,4.42-.35.45-.17,1,1.42,1.52,1.32l2.42-.5-.85-1.42c1,.44,1.39.82,2.35.22a6,6,0,0,0,2-1.6l-6.52-2.48c-.57-.22-1.54-.88-2.15-.62-1.07.49-.56,1.23-.37,2.42-1.53-.66-4.64-3.6-6.15-2.37s-2.13,1.48-2.6,3.27C690.07,2867.2,691.28,2868.07,691.87,2868.79ZM385.32,2943.7c.54-.18.63-.61.33-1.17a2.08,2.08,0,0,0-.72.5C385.49,2943.15,385.13,2943.41,385.32,2943.7Zm315-67.95c1.4,1.18,2.37.89,4.15.84-.39-1.63-.52-1.68-1.85-2.49-.32-.17-2.61-1.21-2.62-1.28-.14-1.13-1-2.22-2.31-1.34-1.51,1,.31,2,1,2.52l-2.59,1.79C697.19,2875.67,699.32,2874.94,700.28,2875.75Zm-163.08-37c1.31-.29.89-.84.81-2.26-.5.05-1.64-.13-2.06.16s-.4,1.3-.8,1.52c-1.1.62-2.23-1-3.06.64a5.89,5.89,0,0,0,.91.89Zm-11.56,2.05c.76,0,1.19-.23,1.69.41.86,1.08,3-.48,3.8-1.34.92-1-1.1-2.48-2.1-2.23a19.94,19.94,0,0,0-4.44,1.64C524.86,2840,524.86,2840.79,525.64,2840.77Zm84.6,12.54c1.16,1.59,4.1-.41,5.51-.93.45-.15,1.2.74,1.85.63l3.72-.65a4,4,0,0,0,2.07-1.06c.47-.37-.52-1.84-1.08-1.89-1.21-.12-1.43-.63-2.27-1.62-.36-.41-2,0-2.49,0l1.05-.94c-1.71-.63-2.93-.58-4.18.77a25.54,25.54,0,0,0-3.09,4.49C611,2852.54,610.59,2852.92,610.24,2853.31Zm-16.11-8.11c1.23-.08,3.64-.87,4.47.23,1.08,1.39,1.72,3.21,3.43,3a8.8,8.8,0,0,1,5,.46c1.76.67,2.55.29,4.37-.25-.18-.57-.82-1.8-.61-2.38.28-.75,1.05-1.75.28-2.17-1.64-.91-2.57-.13-4.3.54.57-.6,1.14-1.23,1.71-1.83-.81-.19-2.77-.13-3-1.09-.38-2.08-.37-1.85,1.47-2.39-1.19-.85-3.38-3.22-4.77-3.28-1.61-.06-.56.9-1.51,1.19s-2.14.67-3.23,1-1.08.77-1.44,2.17c-.13.48-2,.67-2.46.8s-1,2-1.21,2.49C592.24,2844,593.84,2845,594.13,2845.2Zm187.69,41.65c.57-.17,1.06.24,1.61.13,1.83-.36,3.28-.32,4.6-1.77-.76-.68-1.35-1.51-2.34-1.56l-3.89-.17c-.9,0-2.25.92-3.1,1.28-.23.09.45,2.44.53,2.83Zm-348.6,6.68c-.72.32-1.74.38-1.44,1.5l1.23-1A5.49,5.49,0,0,0,433.22,2893.53Zm-5.54,4.73a1,1,0,0,0,1.21-.66c-.35-.38-.74-.31-1.15.08C427.71,2897.87,427.7,2898.08,427.68,2898.26Zm3.08-3.74c-.46.51-.93,1-1.37,1.54l1.37.27C431.67,2895.77,431.5,2895.15,430.76,2894.52Zm-38.85,38c.51.15.6.06,1.07-.21-.36,0-.56-.18-1-.11l.35-.21c-.74-.57-.86.21-.9.5l.31.45C391.83,2932.84,391.86,2932.69,391.91,2932.55Zm55.67-44.18c.49-.46,1-.71,1-1.39-.69.38-.56.8-1.42.56a3.39,3.39,0,0,0-1.76-.09C445.71,2888.78,446.63,2888.42,447.58,2888.37ZM386,2943a7.63,7.63,0,0,0,.53-1C386.09,2941.87,385.65,2942.23,386,2943Zm45-46.23c-.92,0-1.79-.24-1.75,1.14C429.83,2897.49,430.42,2897.12,431,2896.73Zm-43.66,46.53a1.38,1.38,0,0,0,.38.95C388,2943.73,387.85,2943.36,387.34,2943.26Zm-.5-5.55-.34.17.48.16a2.8,2.8,0,0,0-.75,1.47c-.06.28-.75.51-1,.9.92.19.93.57,0,.76.55.54,2,0,.77-.79.77.47,1.14-.24,1.71-.78.08.1.14.2.22.31-.86.46-1,1.45-1.24,2.38-.14.63.22.64-.09,1.45-.16.4-.49.61-.15.93.7.62.54-.84.62-1.33.1-.74.06-1.54.94-1.87-1,.84-.16,1.68.53.2a2.9,2.9,0,0,1,.25.77c-.59,0-.48.26-.35.85.2.82.33.52,0,1.51s-1.25,1.09-.13,1.95c0-.23,0-.47,0-.71.52.2,1.35.87,1.05-.05.81.55,1.81-.53,3-.36-2,.47-.92,3.52.29,2.6-.55.76-.49,2.35.18,2.8l-.23.08c-.33-.47-.22-.18-.6-.39.05.17.09.34.13.52-.73-.14-1.35-.44-2,.08a.83.83,0,0,0-1.17-.54c.83.67.42,1.31-.32,1.82l1.45-.28c-.15,1,.42,1.22-.24,2.13-.35.49-1.78.76-2.33,1a1.37,1.37,0,0,1,.1.53c.63,1.1,1.46-.33,2.4.2l-.35.28c.38,0,1.38.6,1.53.54.7-.24,1.4-.47,2.1-.72a3.29,3.29,0,0,0-1,1.54c-1.32-.18-2.72-.77-3.17,1-.23.92-1.74,1.65-2.37,2.4,1.17.82,2.45-1.6,4.09-.39.93-2.33,1.29-.43,3-1.25.49-.26,1.53-1.07,2.07-1.05.72.05.89.83,1.7.65a23.5,23.5,0,0,0,3.78-.91c1.86-.77-1-1.36-1.57-1.43,1.41-1.06,2.38-1.59,2.59-3.5s-3.09-.64-3.42-1c1.29-.92-.64-2.57-1.61-2.57a1.12,1.12,0,0,1,1.5.48c-.4-2.51-2.5-2.72-3.13-4.77-.81-2.62-1.91-2.84-4.29-3.17a1.46,1.46,0,0,1,1.54-.63c-.71-1.51,2.66-3.33,1.77-4.69-.57-.87-4.46-.43-4.9.46l-.2-.17c.28-.25.43-.7.76-.91a7.47,7.47,0,0,0-1-.31c.24,0,.49,0,.72,0,.19-.94,2-1.17,2.21-2.58a4.7,4.7,0,0,0-3,.56c-.44-.24.05-.31-.62,0-.19-1-1-.16-.67.63l-.64.11c-.09.25-.14.42-.19.55.28.26.5.63.79.86a1.52,1.52,0,0,0-1.5-.13c.2.35.22.82.43,1.16l-.59-.12C386.17,2937.61,386.44,2937.57,386.84,2937.71Zm2.57,9.76a1.37,1.37,0,0,0-.83,1.15h.4A.86.86,0,0,0,389.41,2947.47Zm45-51.46c.81-.87,1.61-1.74,2.44-2.61l-1.7,1.42C434.42,2894.81,434.16,2895.27,434.4,2896Zm4.24-5.12a11.88,11.88,0,0,1-1.39,1.3l1.46.07C439.1,2891.6,439.7,2891.26,438.64,2890.89Zm-2.85,1.49c-1,.32-1,.22-1.06,1.34-.11,1.68,2.15-.58,2.64-1C437,2891.86,436.48,2892.16,435.79,2892.38Zm4.88-2c-.65-.41-1.5-.49-1.77.4a5.28,5.28,0,0,0,.73.33A1.08,1.08,0,0,0,440.67,2890.43Zm-7.3,4.58c-.46.29-.17,1-.93,1.37.09-.54.18-1.05.29-1.59-.7,0-1,.59-.8,1.31-.19,0-.38,0-.57,0-.1.72,0,.48-.49,1,.86.15,1.17.44,1.73-.31a1.14,1.14,0,0,1,1.45-.56C434.22,2895.71,434.08,2894.57,433.37,2895Zm-1.92,3.07c0,1-.55,1.23-1.33,1.34.31.22.2.33.59.5a3.92,3.92,0,0,1-.46.77C431.12,2899.8,431.63,2899.47,431.45,2898.08Zm1-.33a3.17,3.17,0,0,0-.76-.12,3.14,3.14,0,0,0,.12,1.11l2-2.08C433.12,2896.61,432.68,2897.06,432.41,2897.75Zm9.82-7c-.93-.58-2.5.47-3.15,1.29l1.31-.41Zm.84-1.2a2.5,2.5,0,0,0-1,0c.07.22.14.44.22.64C442.87,2890.66,443.16,2890.34,443.07,2889.56Zm105.65-14.3c-1.34.15-1,.74-1.14,2.16,1.19-.2,2.39-.42,3.58-.64A2.1,2.1,0,0,0,548.72,2875.26Zm125.89,133.29c.08.55.15,1.1.22,1.67,1.36.14.32-1.4,1.28-1.29,1.18.15.56,1.67.26,2.15-.63,1-.76,4.18.94,3,1.37-1,1.86-2.82,2.6-4.4.18-.4-.57-1.43-.73-1.72-.47-.81-.91.12-1.56-.83,1.07-1,2.28.54,2.83-1.42.55.93,1,.54,1.67.12a17.48,17.48,0,0,0,1.7-.66c.72-.89,2.29-.31,3.32-.23-1.58,1.36-.61,2.3.57,3.34.63-.9,1.22-2.5,2.47-2.26-.73-.63-1-1.36-.08-1.95,1,1.62,3,.89,4-.5.23.44.45.89.67,1.34a10.82,10.82,0,0,1,1.76-2.24c-.11.49-.22,1-.32,1.5,1-.37,1.23-1.26,2.12-1.75.12-.07-.19-2.18-.06-2.78.25-1.17.7-1.21.69-2.64,0-.89-.21-2.38,1.09-1.72,0-.91-.25-1.58.47-2s.53-1.49.55-2.48c0-.69-.75-1.67-1.05-2.27s0-1.27.16-2c-1.11-.6-1.77.27-1.46,1.46-.68-2.54-2.21.78-2.47,1.75-.21.78.74,1.13.61,1.54-.34,1-.68,2.08-1,3.13a5.93,5.93,0,0,1-2.62,3.42,5.86,5.86,0,0,1-2.29.85c-.79,0,.13-1.39.38-1.61-1.12.42-1.54.28-1.57,1.59,0,.67-1.07,1.59-1.47,2.08s.23,1.21-.62,1.59c-1.22.54-.69-.48-1.46-.4-1.41.16-4-.19-4.92,1.09a4.65,4.65,0,0,1-3.9,2.38C678.05,3007.09,675.68,3007.82,674.61,3008.55Zm-2.13,74.72a11,11,0,0,0-2.06,2c-.68,1.14-.23,1.35,0,2.29a8.48,8.48,0,0,1,.13,2.55c-.07.52,1.22,1.25,1.58,1.58-.15-1.05-.58-3.35,1.19-2.63-.26-.23-2-1.42-1.15-1.65a.9.9,0,0,0,0-1.79,8.38,8.38,0,0,1,.6-1A10.44,10.44,0,0,0,672.48,3083.27Zm47.61,62.86c-1.25-1.13.45-2.65-1.5-3.32-.22-.08-1.23,1.28-1.46.52-.28-.95-.56-1.86-.85-2.78-.5-1.69-.48-2.64-1.88-3.45-.56-.32-4.42-2-4.42-2.66,0-1.6.43-3.41-.61-4.61-1.45-1.69-1.34-2.36-1.47-4.7a1.87,1.87,0,0,0-2.9-1.44,36.74,36.74,0,0,0-2.77-9.05c-1.59.38-1.71,3.28-2.11,4.72s-.08,3.41,0,5c.07,1.94-1,8.08-3.7,7.11-.94-.34-1.75-2-2.73-2.6l-5.32-3.16c-1.63-1-.93-1.54-.46-3.54.37-1.61,1.26-2.43,2.3-3.65-1.67-1.63-2.08-1.72-4.29-1.94a38.88,38.88,0,0,0-5.18-.39c.06.81.12,1.61.19,2.43-1.92-.29-3.64-1.32-4.86.47s-1.51,3.38-2,5.53c-1.66-.88-3.3-1.76-5-2.63-.61-.32-2.65,2-3.12,2.39-2.69,2.3-6.3,4.27-7.64,7.78-.68,1.8-.69,3.27-2.42,3.68l-6.86,1.59a9.84,9.84,0,0,0-3.8,2,6.42,6.42,0,0,0-2.85,3.81c-.28-.72-.56-1.41-.85-2.12-1.15,2.81-1.86,5.19-.72,8,.67,1.7.49,2-.09,3.73-.39,1.25.4,2.16.93,3.32a30.52,30.52,0,0,1,2.67,8.68c.16,1.19,1.16,4.25.75,5.3-.15.37-2.7,1.82-1.46,2.79,1,.81,2.2,2.26,3.51,2.26s2.85.45,3.86-.54c1.45-1.44,1.84-2,3.71-2.15,1.34-.13,2.69-.33,4-.37l3.07-.1c.31,0,.79-1.45,1-1.77.53-1.12,2.57-1.58,3.59-2.08s2.74.32,3.75-.29c.8-.48,2.39-1.95,3.29-1.83a38.39,38.39,0,0,1,9,1.9c1.91.73,2,1.09,3.13,3a29.4,29.4,0,0,0,2.24,3.58,32.7,32.7,0,0,0,4.4-5.9c.78,2.41-.78,4.31-2,6.32,2,.45,1.91-.7,2.86-2.63.11,1.22-.22,4.21,1,4.21S696,3179,696.2,3180c.73,3.44,3.2,4.36,6.1,4.83,1.88.3,2.15.54,3.62-.73,1.68-1.43,1.55-.78,3,.93.67.8,2.45.16,3.1-.5,1.5-1.5,1.72-1.64,3.73-1.7,3.38-.12,3.07-4.71,3.6-7.6.46-2.51,3.19-4.34,3.81-6.82.72-2.93,2.25-6.48,2.34-9.51s-.91-6.21-1.34-9.06Zm-53.22-49c-.67,1.9,2.47,1.07,2.87.9C669.82,3096.89,667.31,3095.87,666.87,3097.14ZM678,3116c-1.06.72-2.3-.78-2.41,1.24.9,0,1.83.44,2.54,0S679.05,3115.73,678,3116Zm46.35-15.13c.5-1.15.68-1.2,0-2.25-.1-.15-.5.13-.68-.14a3.82,3.82,0,0,0-.53-.85c-1-.84-2.29-1.46-3.37-2.18-.41,1.33,4.57,2,4,4.41A7.35,7.35,0,0,0,724.3,3100.9Zm-10.78,89.66c-.66.26-2.62,1.5-3.24,1.22l-3.45-1.54a11.65,11.65,0,0,0,.66,5.58c.89,2.1,1.91,2.56,3.8,2.91C713.6,3199.18,715.84,3191.31,713.52,3190.56Zm3.42-88a8,8,0,0,0-2.54.07c.55,1.35,3.17,2,4.42,1.74a3.57,3.57,0,0,0,2.58-1.6c.15-.32,2-.19.86-1.38,1.58-.35.85-1.61,0-2.2-1.16-.75-.9,1.38-.88,2-.13,0-3.91,2.74-3,.47C718.25,3101.24,717.73,3102.47,716.94,3102.51Zm-7.87-.24c-.69-.75-.25-1.95-1.21-2.55l-2.82-1.78a27.63,27.63,0,0,0-4.8-1.84l-7.32-2.79c-1.18-.44-3.09.45-3.89,1.51-.28.38-1.57,2.5-1.93,2.35-1-.5-1.54-.56-2-1.67a13.2,13.2,0,0,1-.92-3.46c-.18-1.39-.55-1.13-1.81-1.44a4.13,4.13,0,0,0-5,2c.68.12,1.36.21,2,.31.35.06,0,1.17.44,1.41,1.15.64,2.6.25,3.88.19a2.63,2.63,0,0,1-.1,1c-1.55-.53-2.45-.22-4.06.16.67,1.15,1.33,2.28,2,3.42.58-.73,1.17-1.43,1.77-2.17.3,1.71.28,1.65,1.71,2.26l5,2.14c.69.29,2.44.62,2.77,1.41.58,1.35,1.14,2.7,1.7,4.05-2,.56-2.16.35-2.43,2.57l4.52-.46c.79-.08,1.36,2.27,2.31,2.32,1.59.08,3.05.5,4.43-.39.78-.49,1.12-2.9,1.82-2.79.86.12,3.41,0,4,.63l3.61,3.81c1,1,2.22.89,3.51,1.12.89.15,2.29,1.22,3,1-.54-.59-2.28-1.77-1.44-2.48-.81-.19-2-.06-1.43-1.31-2-.07-1.87-.57-2.81-2.47-.22-.47-1.1-.81-1.51-1.09s-.57-1.29-.74-1.76l1.91-.22C713.67,3102.54,710.12,3103.4,709.07,3102.27Zm-7.69-143.67c0,1.5.16,2.88-.49,4.21-.82,1.71-.17,1.75.18,3.49a2,2,0,0,1-.4,2.07c-.28.46.13,1.22.14,1.76,0,1.69-.28,2,.37,3.68.22-.91.21-2.35,1.29-2.52s1.63,1.18,1.58,2.11c1-1.09-.23-2.8-.82-3.81-.76-1.29-1.24-1.56-.78-3,.64-2,.44-2.58,2.34-2.94,1.25-.23,1.12,1.9,2.32,1.92a20.34,20.34,0,0,1-1.93-5.37c-.25-.94-.49-1.88-.73-2.83-.16-.64-.9-1.15-1-1.8-.34-2.07,1.28-3.09.23-5.15-.57-1.08.11-4.1-1.85-2.59.75.74,1.21,1.93.41,2.68-.33.3-.43-.36-1.06.14s-.44.61-.22,1.46-.34,2.66-.51,3.67S702.43,2957.44,701.38,2958.6Zm-38.56,108.46c1,.2,1.64-1.33.37-1.46C662.82,3065.93,661.61,3066.81,662.82,3067.06Zm-1.51.34a3.89,3.89,0,0,1,1.37-2.34c.4-.38.16-1.62.32-2.23l-.34.18C662.23,3064.34,661.1,3066,661.31,3067.4Zm3.51-4.71a1.13,1.13,0,0,1-1.47-.37,2.78,2.78,0,0,0,.37,1.63c.9-.78.26,1.52,1.17,2,0-.35,0-.72-.07-1,.14.3.3.59.42.91C665.79,3065,664.74,3063.82,664.82,3062.69Zm-3.16-2a2.85,2.85,0,0,0,1.16,1.24,4.42,4.42,0,0,0,0-1.31c-.86.07-.66-1-1.82-.88a1.38,1.38,0,0,1-.27,1.7A5.28,5.28,0,0,1,661.66,3060.74Zm1.6-.77c0,.83.68,1.1,1.25,1.59s-.06.62.35,1.15c1.44,1.91,1.27-.65,1-1.84C665.54,3059.48,664.29,3059.92,663.26,3060Zm-5.11,1.81c.2,2.39-.11,4.1,2.37,2.91-.63.84-2.07,2.24-.71,2.86.53.25.34,1,1,.87s.32-1,.31-1.62c0-.86,1-2.52.72-3.1a3.77,3.77,0,0,0-2.56-2A3.91,3.91,0,0,0,658.15,3061.78Zm-5.48,30.75a16.45,16.45,0,0,1-.52,2.46c-.62,1.33-1,1.47-.17,2.66.46.66,1.59-.23,1.36,1.33-.09.65-.82,3.14-.52,3.62s2,.72,2.29.15c.14-.26-.33-1.09-.32-1.41s.42-.76.46-1.15c.1-.79-.09-1.83,0-2.73s-1.11-1.5.62-1.71c1-.1.21,1.69.34,2.11.33,1,1.52.84,1.23,1.89s.43,1.29,1.24,1.1c-.39.1,1.75-1.67,1.49-1.1.63-1.43-.84-.71-1.28-1.77-.11-.27.62-.8.44-1.14-.26-.5-.53-1-.79-1.5-.44-.82-.87-.77-1.44-1.38,1.94.72,2.65-3.17,4.37-2.06.47-1.7-1-.68-1.64-.65-.82,0-.85.36-1.47.53s-.37-.71-1.11.12c-1.86,2-3.81-1.54-2.38-3.28.69-.84,1.57.13,2.51,0s2.46-.53,3.43,0c2.39,1.4,3.73-1.25,4.47-3.33-1,0-1.8,1.57-2.67,2.14-.49.31-1.32-.26-1.85-.29s-.54.43-1.31.16c-1-.33-2.77-1.39-3.72-.76a5.77,5.77,0,0,0-2.25,2.93C654.38,3090.82,653.05,3091.4,652.67,3092.53Zm2.26-34.75c.62,1,1.22,2.1,1.83,3.16,1.24-1.47,1.06-2.24-.36-3.2ZM643,3108.61c0,1.22.85,2.24,1.73,1.09S643.75,3108.3,643,3108.61Zm54.77-127.93c-.09.44-.08,1.47-.45,1.67-.73.39-.85.39-1.08,1.24a8.9,8.9,0,0,0,1,2.81c.28.1.69-1,1.15-.87s1.06.15.69-.47c-.43-.77-1.82-.26-1.61-1.62.68-.22,1.4.48,1.77.29s1.32-.78,1.67-.42c.55.52,2.24,2,2.94,1.64a10,10,0,0,1,.58-1.81,2.9,2.9,0,0,1,1.59-.89,3.46,3.46,0,0,0,3.13-1.22c-2.34.07-.58-1.91-.93-2.9-1.61,1.68-1.68,1.23-3.71.2-1.43-.73-2.13-2-3.13-3.4-1.26-1.7-.73,2.09-.56,2.65s-.88,1.25-.82,1.93a2.45,2.45,0,0,1-.23,1.7ZM419.58,2944c.08.54,1,1.77,1.53,1.63a.72.72,0,0,0,0-1.41C420.88,2943.4,420.22,2943.6,419.58,2944Zm52.79,58.15c-.69.31-1.72,1.07-2.46,1-.43,0-2.08-.39-2.41.26-1.09,2.16,3.36.92,3.79.79C470.72,3003.13,471.74,3002.68,472.37,3002.11Zm-17.64,1.75c0-.81-1.55-1.1-2.26-1-1.43.21-1.82-.06-3.11-.82a3.09,3.09,0,0,0-.5,1.09A16.4,16.4,0,0,0,454.73,3003.86Zm-32.28-60.32c-.19.6,0,1.67.73,1.63s.72.69.9,1.58c.16-1,.05-2.09,1.22-2.2-.25-.17-.4-.53-.65-.69,2.92-.6-1.84-3.25-.44-.47-.62,0-.84-.34-.52-.95a1.94,1.94,0,0,0-.72,0A.89.89,0,0,1,422.45,2943.54Zm26.1-9.63a4.74,4.74,0,0,0-3.49.11,1.66,1.66,0,0,1,.53,1.94C446.22,2934.85,447.54,2934.56,448.55,2933.91ZM417,2989.48c.06.31-.51.92-.58,1.26,0,.17.53.46.5.63-.15,1-1,1.08-.18,1.86.64.59,1.3.67,1.38-.34.05-.58.91,0,1-1.09s.28-2.17.41-3.26c.27-2.22-2.26-.88-2.86-.48l-.65-.24C415.68,2989,416.86,2988.66,417,2989.48Zm384.86-74.23c-.45,0-2.35-.44-2.68-.13s0,1.43.34,1.71c1.18.94,2.79-.45,3.55.52.88,1.13,2.26,1.57,2.9-.29C804.76,2916.47,803.25,2915.33,801.89,2915.25Zm-364.63,24a4.19,4.19,0,0,1,1.78-1.43c-.7-.78-.06-1.23.43-1.89C437.35,2935.39,437.14,2937.54,437.26,2939.23Zm4.41-10.52c0-.23-.07-.48-.11-.71h.34C441.73,2926.59,439.87,2927.63,441.67,2928.71Zm-24.75,55.53c-.78.66.64,2,1.33,2a8.35,8.35,0,0,0,.49-4.26c-.62.13-.08.64-.43,1.11A7.71,7.71,0,0,1,416.92,2984.24Zm312.39,119.21c-.59-.3-.48-1.2-1.37-1.47a2.08,2.08,0,0,0,.46,1.7c.34.4.17,1,.4,1.26.48.58,2.41,1.14,1.78-.29A3.54,3.54,0,0,0,729.31,3103.45ZM683.5,3008c.28-.12.75.89,1,.53s1-1.07,1.05-1.43c.14-2.59-3.32-.34-3.86-.75-.79,1.69-1.4,1.3-.79,3.35C682.28,3010.58,682.5,3008.43,683.5,3008Zm-12.56,89c-1,1.31,1,1.31,1.52,1.23.4,0,.23-.94.61-.79s1,.52,1.45.4c1.28-.34,1.66.17,2.78.94.49-2.25-2-2.47-3.32-2.83C672.86,3096.1,671.69,3096,670.94,3097Zm96.48,95.49a5.09,5.09,0,0,0-.66-2.41c-1,.54-1.39.55-1.65,1.73s-.63.7-1.27,1.59c-.46.63-.38,1.74-.81,2.42a10.57,10.57,0,0,1-1.94,1.71,9.08,9.08,0,0,1-2,1.52c-.53.24-1.79.53-2.17,1l-3.58,4.83c-1.24,1.65,2.37,1.21,2.86,1.78.72.82,3.31,1.72,4,.49s2.31-3,2.73-4.55c.56-2.16,1.34-2.49,3.05-3.76a1.11,1.11,0,0,0,1,.9c-.66-1.33-.75-1.46.13-2.61s1.75-2.29,2.64-3.44c-.25-.84-.51-1.68-.76-2.54C768.51,3191.57,768,3192,767.42,3192.44Zm-11.25,15.14c-.67.24-.24,1.1-.78,1.79C756.1,3208.69,758.06,3209.05,756.17,3207.58ZM778,3182c-1.71,1.1-2,1-4,.48-1.19-.31-.4-2.53-1.63-3.13.13,1.24-.68,2.23-1.46.69-.21-.44.19-1.15-.11-1.6a4.46,4.46,0,0,1-.84-1.2c-.52-1.64.4-1.43-1.39-2.12-.91-.35-1.35-1.24-2.19-1.47.45.94.91,1.88,1.35,2.84l.5-.4c.48,1,1.51,4.72,2.63,4.35-.41,1.17.39,2.32,0,3.43a4.92,4.92,0,0,1-2.08,2.94,12.7,12.7,0,0,0,1.51,1.34c.33.2,1.44.26,1.63.6.61,1.16-.83,2.7-1.42,3.35,1.11.7,2.33,1.27,3.15-.38.68-1.38,2-3.07,1.92-4.66,0-1,1.13-1.06,1.69-.79s.14-.58.36-.8C778.32,3184.7,779.65,3182.19,778,3182ZM403.9,2991.37c.43.34.86.7,1.3,1,.38-.32.77-.63,1.14-1C405.55,2990,405.05,2990.71,403.9,2991.37Zm394.31-83.23c-.05,1.39.22,1.84-1,2.38-.87.41-.12,1.71.09,2.59a5.47,5.47,0,0,1-3.42-1.37c-.78-.59-2.53.44-2.77-.52-.35-1.41-.15-2.73-1.54-2.83l-4.53-.32c-.91-.08.63-2.79-1.35-2.47-1,.18-.64,2.74-.68,3.75-.08,1.59-5.12,2.05-6.49,2.42,1.17.84,2.54,1.21,2.63,2.81.11,1.88.84,2.62,1.89,4.13.11.14-.74,1.27-1,1.35-.38.16-1.47-.29-1.88-.37-.73-.15-2.42-.88-3.09-.48l-8.33,5.07c-2.17,1.32-4.51,2-5.54,4.54-1.93-1.91-2-2.14-4.59-1.81s-2.54.46-4,2.61c0-.77,0-1.53-.07-2.29-.74.36-2.12,1.43-2.93,1.33-1-.15-2-.71-2.59.28-1.39,2.22-2.77,4.46-4.15,6.68.74.24,3.34.55,3.11,1.46-.56,2.16-.67,2.24.62,4-2.17.94-4.1,1.89-2.94,4.73.19.46-1.67,1.19-2.15,1.36-1,.36-2,.24-2.08,1.49-.11,1.47.29,2.71-1.09,3.07-1.73.45-1.82.24-2.12,2.18s-2.68,3.83-3.82,5.25c-1.43-6.65-6.25-19.33,1.73-23.23,2.29-1.11,3.62-1.45,4.94-3.74,1.23-2.14,2.7-3.07,4.63-4.52,1.34-1,3.14-1.53,3.56-3.31.32-1.33.65-2.65,1-4,.08-.31,1.91-.47,2.25-.55a8.62,8.62,0,0,0-3.38-.29c-1,.12-1.52,1.68-2.07,2.54-1.1,1.76-3.41,3-5,4.31-.75-2-.56-2.76-.14-4.9a5.65,5.65,0,0,1-3.69,1.16c-1.68,0-2.09-.13-3.41.94a44.58,44.58,0,0,0-5.6,5.72c.55.48,1.93,1.15,1.51,1.9-.16.3-2,.43-2.42.48l-5.81.7c.68-.51,1.37-1,2.06-1.49-1.84-.38-3.68-.74-5.53-1.1-.5-.11-1.78,1-2.25,1.3s-1.32,0-2-.09a23.23,23.23,0,0,0-4.93-.24c-1.06,0-4.14-.44-5,.34-2.86,2.66-5.67,5.32-8.4,8.16a58.24,58.24,0,0,1-8.31,6.63c.4,1,1.06.9,1.9,1,1.09.11,1.19-.08,1.61,1,.12.33.49,1.93.84,2,2.21.18,2.39.53,3.46-1.61.93-1.82,6.16,2.46,5.9,3.91-.61,3.45-1.39,6.85-2.16,10.27-.73,3.23-1.89,5-3.64,7.78-1.64,2.6-3,5.11-5.15,7.21l-4.34,4.3c-.81.79-2.45.79-3.48,1-.51.12-1-1.38-1.46-1.48s-1.58.93-1.91,1.13c-1.62,1-1.64,1.4-2.29,3.36-1,3.05-3.42,4.67-5.61,6.8,2.43,2.1,4.57,4.4,4.08,8-.33,2.41,0,2.94-2,4a7.31,7.31,0,0,1-4.38.75c.2-1.37.38-2.73.57-4.09.22-1.58-1.21-1.47,0-2.89.75-.89.35-2.13-.74-2s-2.64.79-3-.79c-.17-.82.87-2.82,1.13-3.63a10,10,0,0,0-2.56-1.59c-.84,0-2.36,1.43-3.08,1.86L656.9,2994c-.82-2.06,1.11-3.56,2.3-4.82-1.27-1-1.31-1.29-2.72-.61a11.57,11.57,0,0,0-2.48,1.79,8.15,8.15,0,0,1-2.94,1.85c-.22.08-2.44.87-1.82,1.56a20.85,20.85,0,0,1,2.33,2.8c.95,1.49.83,1.29,2.32.54,2.15-1.06,3.82-.15,6.1.45q-3.74,3.14-7.46,6.32c1.07.91,2.37,1.67,3,3q1.2,2.59,2.37,5.17l-3.86-.71c1.36,1,2.72,2,4.08,3-1,.71-2,1.41-3,2.14l3.73,1.1c-1.54,2.85-2.86,6.47-4.84,9-2.11,2.68-3.73,5.65-6.76,6.92-3.27,1.36-6.52,2.73-9.84,3.93l-3.06,1.11c-.84.3-.64.31-.45,1.31.13.64.14,2-1,1.38-.31-.16-.65-1.67-.8-2.06.38-.08.7-.38,1.08-.46-1.15-.89-3.22-1.57-4.5-.54-1.08.87-3.7,2.17-4.15,3.6-.13.44-1,2.31-.76,2.69.64,1,1.3,2.08,1.94,3.12.93,1.49,2.08,2.81,3.14,4.19,1.34,1.73,2.09,2.31,2.19,4.51.06,1.35.81,4.53-.2,5.46a108.29,108.29,0,0,1-8.7,7.37c-1-1,.4-2.59-.33-3.36-1-1.06-2-2.11-2.93-3.16-1.75-1.88-3.1-2.94-5.49-3,.07-.58.15-1.17.22-1.74-2.32.11-1.89.42-2.08,2.93a16.39,16.39,0,0,1-1.39,4.32,4.45,4.45,0,0,0,0,1.92c.11,1.22.11,1,1.23,1,.57,0,1.29,3.68,1.49,4.35.33,1.13,2.52,2.16,3.38,2.81a9.41,9.41,0,0,1,2.51,2.86c.51,1.31,0,3.18.29,4.58a31.89,31.89,0,0,0,1.58,3.95c-2-.33-3.15-1.57-4.77-2.83s-1.59-1.85-2.22-3.8c-.44-1.34-.85-4.41-1.8-5.41l-4.19-4.47c-.62-.68.26-4.34.36-5.37a39.24,39.24,0,0,0-.38-5.92c-.25-3.76-1.43-6.94-2.56-10.49-.74.9-1.49,1.81-2.23,2.73-1,1.17-.86,1.14-2.29.81s-1.38-.21-1.15-1.85c.1-.7.69-2.55.41-3.19-1-2.32-1.54-4.35-3.43-5.86-1.65-1.32-2.2-3.6-3.07-5.59-.83.57-2,1.85-3,2l-5.2.73c-.22,0-1.32,0-1.49.2s.22,1.51-.09,1.84l-2.55,2.63q-3.62,3.7-7.24,7.45c-.81.83-2.48,1.23-3.47,1.73-1.29.63-.81,1.58-.79,3.12,0,1.3.41,3.24.07,4.49s-1.26,3-.95,4.24a8.24,8.24,0,0,0,1.94,4.16,14.5,14.5,0,0,1,2.18,4.1c1.18,2.75-3.5,5.16-3.84,1.44a33.67,33.67,0,0,1-.15-4.81c.07-1.61-.52-1.85-1.59-3-.14,1.13.07,2.3-.84,2.91s-2,1.28-3,1.92c-2.72-5.16-5-10.47-7.4-15.84a26.75,26.75,0,0,1-2-4.53,20.69,20.69,0,0,1-.12-3.61q-.15-5.15-.31-10.28c-.73,1-1.45,2-2.17,3s-.81.87-2,.82-2.9-2.63-3.84-3.65c1-.21,3-.08,3.15-1.42a5.93,5.93,0,0,1-1.72.15c-1.39-.33-2.95-1.68-4.23-2.41-.87-.5-1.44-2.76-1.88-3.69s-7.76.58-9,.73c-2.7.31-5.43-.75-8.07-1.35-1.16-.27-2.49-.14-3.09-1.32-1.07-2.11-.81-2.72-2.91-2-1.75.65-2.82.4-4.69.1-1.14-.18-1.87-1.59-2.92-2.09-1.89-.91-2.09-1.12-3-3.12-.63-1.33-.88-3.05-2.28-3.27-2.42-.35-2.41-.25-4.09,1.72-.57.69,1.45,3.13,1.88,3.84,1.52,2.54,2.81,5.22,4.18,7.83.2-1.18.38-2.36.58-3.55,1,1.77.79,3.54.85,5.61,1.74-.11,4.65.19,6.25-.79s3-3.45,4.29-4.89c.12,1.48-.24,3.93,1,4.76a16.08,16.08,0,0,0,2.25,1.55c.7.3,1.53,0,1.93.8.31.54.79,2.06,1.4,2.16,1.06.18.62.93.55,2s-2.33,3-3,3.78c0-.35-.31-.67-.36-1a7.21,7.21,0,0,0-.93,3.5c0,1.29-.48,1.15-1.56,1.67l-3.33,1.59c-.66.31-.64,2.17-1.27,2.48s-1.34-.43-1.89-.2l-2.43,1.07c-1.11.5-1,2-2,2.37-1.85.65-3.68,1.31-5.52,2-.55.19-.64.48-1,1-.45.7-1,.61-1.78.75-1.59.31-3.16.82-4.73,1.25-1.16.29-1.4,1.63-2.67,1.63-2,0-2.15.43-2.53-1.61s-.78-4.15-1.16-6.22c-.61-3.23-2.17-5.35-3.83-8.13-1-1.65-1.13-2-2.84-2.59-1-.37-1-3.35-1.16-4.4-.26-1.57-1.28-3-2-4.4-.43-.83-1.4-1.24-1.91-2.16-1.1-2-2.19-3.92-3.29-5.91-.55-1-1-2.66-2.26-2.32.15-1.21.33-2.42.49-3.64-.47,1.45-.95,2.89-1.43,4.34A20.09,20.09,0,0,1,468,3017c-1.16,1.48.89,3.94,1.56,5.29q2,4.11,4,8.23c.8,1.64.51,3.48,1.71,4.77.51.55,1.78,1.45,1.91,2.25.21,1.4.43,2.77.65,4.17.12.81,0,2.36.65,2.95a15.58,15.58,0,0,1,2.48,2.39c1.13,1.76,1.63,4.48,2.38,6.48.24.69,2.19.58,2.68,1.15l2.25,2.62c1.25,1.45,3.78,3,1.82,4.93,1.32.4,2.75,3.11,3.8,2.84,3.6-1,7.2-1.94,10.79-2.89.67-.17,2.59-1,3.15,0,.34.6-.92,4.05-1.09,4.79-.66,2.87-2.75,5.59-4.1,8.11-1.17,2.16-2.12,4.49-3.78,6.22-4.35,4.58-9.43,8.8-12.69,14.39-.73,1.23-5.38,7.58-4.63,8.7,1.31,1.95,1.32,2.31,1.17,4.73-.12,2.18,0,2.35,1.26,4,1.95,2.65,1.29,6.75,1.45,10.07a7.53,7.53,0,0,1-3.85,6.28c-1.1.53-3.33,1-4.17,2l-3.25,3.78c-1,1.11-2.11,1.63-1.51,3.08.41,1,1.89,3.19,1.77,4.24-.14,1.26.08,4.12-.57,5.13s-3.28,1.57-4.2,2c-1.53.73-1.19,1.43-1.37,3.3-.09,1,.09,3.72-.47,4.52-1.81,2.56-3.48,5.59-5.57,7.86a46.73,46.73,0,0,1-3.71,3.2c-.69.6-2,2.31-2.91,2.49l-9.65,2-4.45.93c-.72.14-2.16-1.73-2.68-2.22-1.75-1.57-1.69-1.54-1.42-4.06.1-1-1-2.68-1.33-3.54-.75-1.87-1.51-3.74-2.25-5.61-.45-1.11-1.83-2-2.64-2.78-.56-.55-.55-3.14-.66-3.92l-1-6.41c-.43-2.87-1.88-5.13-3.14-7.69-.83-1.67-1.66-3.34-2.47-5-.36-.75.14-2.12.25-2.88.55-3.67.63-7.12,2.4-10.28s.68-5.47-.06-8.62l-2.39-10.24c-.25-1-1.62-2.26-2.22-3.06-1.17-1.56-2.32-3.12-3.48-4.67-.63-.83-.19-1.92-.06-3,.24-2.12.5-4.25.75-6.38.22-1.82.31-1.93-.75-3.38-1.21-1.67-1.14-1.81-3-1.69-1.09.05-3.29.75-4.07-.22l-3.34-4.1c-.48-.58-7.27.49-8.12.92l-4.82,2.45c-1.26.65-1.81.32-3.2,0s-2.36-.82-3.74-.33c-1.76.61-3.52,1.24-5.27,1.86-.84.3-1.78-.84-2.46-1.33-1.68-1.22-3.38-2.44-5.06-3.64-2.14-1.54-3.18-2.26-4.51-4.56-2.15-3.75-4.29-7.47-6.45-11.21-.68-1.2-1.37-2.4-2.06-3.6-.32-.56.82-2.65,1-3.22.36-1,1.48-2.81,1.24-3.9-.39-1.8-.79-3.56-1.2-5.35-.27-1.2-1.17-3.35-1-4.58a10.21,10.21,0,0,1,1.37-2.48c2.08-3.73,4.14-7.47,6.21-11.22,1.46-2.63,3.2-3.39,5.69-5,1.29-.82,1.87-.84,2.11-2.43l.9-5.93c.36-2.33,5-2.76,5.91-5,.63-1.58.92-3.79,2.51-4.24.42-.12,1.57,2,2.86,1.76.57-.12,1.89-.7,2.44-.42.3.17,1.48,1,1.75.88a43.39,43.39,0,0,1,3.82-2.25,29.48,29.48,0,0,1,8-2.48,8,8,0,0,1,2.46-.26,6.34,6.34,0,0,0,2,.65c.66,0,1.28-.79,1.93-.91a8.5,8.5,0,0,1,1.81.1c1.75.1,3,.39,4.47-.52,1.23-.75,2.38.24,3.65.77-.94,2.08-1.13,2.16-.07,4.14.5.9-1.42,2.28-2.05,3,1,.92,2.27,2.6,3.56,2.93l6.6,1.75c1.7.45,1.22,2.33,2.9,3.05,1.48.63,2.87.39,4.23,1.35,1.92,1.35,2.93,1.69,4.17-.74.29-.58-.65-1.45-.35-2s.75-1.8,1.19-1.92c2.13-.61,3.19-.94,5.33-.36.47.12,0,1.11.66,1.23l3,.61c.8.17.84.55,1.24,1.36.22.42,1-.51,1.34-.4l4.78,1.41c1.75.51,2,.51,3.65-.3s2-1.18,3.82-.3c2.15,1.06,5.51.72,6.5-2,.61-1.72,3.62-7,2.45-8.74-.76-1.1.88-3.47.5-3.89s-1.06.29-1.41.58-1.05-.57-1.51-.47c-.62.11-1.12,1.4-1.7,1.68a7.32,7.32,0,0,1-2.2.1c-1.38.05-2-1.43-3.23-1.65-.84-.15-1.54-.65-1.86.28-.37,1.11-.37,1.06-1.45,1.26s-2.79-1.26-3.63-1.76c-1.58-.9-4.3-5.46-2.6-7.36l-1.69.2c-.25-1.87,2.19-2.39,3.21-2.41a8.46,8.46,0,0,0,4.68-1.06l-1.61-.82c.34-.92,2.3-.52,3.18-.4,1.64.24,1.73-.22,3-1.09.83-.54,2-1.41,3-1.34a8.88,8.88,0,0,0,3.81-.11c-.3.53.23,1,.8,1.29.9.44.57-.76,1.48.52.34.47,2.82.85,3.62,1.18,1.35.53,2.19-.27,3.55-.1a5.61,5.61,0,0,0,3.92-1.23c1.09-.68.48-2.59-.2-3.36-1-1.09-2.17-1.3-3.21-2.29s-2-2.4-3.51-2.58a15.21,15.21,0,0,1-1.52-.91c-.6-.41-1.16-.88-1.74-1.32.06-.12.48-.68.48-.68l1.67.33c-.51-1.78.63-2.33,1.94-2.3-.62-.51-1.47-1-1.8-1.72l1.68-.05c-.41-1.28,1.25-.34,1.5-1.12s-1.07-.51-1.45-.45c-1.38.23-2.88.27-3.86,1.56V2971a5.85,5.85,0,0,0-3.33,1.76c.09-.2.18-.4.28-.59-1.58-.2-.86,1.78-.22,2.53.8,1,2.06.47,3.36.47-.92,1.67-2,.43-3,1s-3.13,2.44-4.29,1.5c.7-2-.2-1.7-1.82-2.47.8-.42,3.88-1.54,1.79-2.26a5.87,5.87,0,0,0-2.09,0c-.48,0-1.16-.72-1.57-1,.85.06,1.93.51,2.39-.45-.93.46-3.29-.61-3.84,0s-2.39,2.06-2.53,3a8.16,8.16,0,0,1-.36,2.26c-.3.43-1.5.38-1.61.92-.35,1.69-.27,2.93-1.63,3.82s-1,2.44-.39,3.68c.41.8,2.56,1.79,2.44,2.17-.35,1.08-2.32-.3-3,.38l-3.16,2.94c-.12-1.14.54-1.36,1.32-1.84-.61-.26-1.32-.27-2-.54-1.1-.42-1.73-.15-2.71-.42-.5-.13-1.12.27-1.58.45s.17,1-.07,1.16c-.87.72-1.48.08-2.23-.45-.81.9.09,1.76.56,2.59.72,1.29.76,1.14-.26,2.19,1.33.93,2.79,1.25,2.5,3.18-.8-.61-1.35-1.36-2.18-.32,1,.2,1.12.85.39,1.44s-.39,1-.08,1.92c-.89-.17-1.57,0-2-.93s-.74-.54-1.4,0c-.69-2.35-1.17-2.56.65-4-1.69,0-1.69-.21-2.7-1.73-.58-.86-1-2.31-1.75-2.93-1.33-1.1-.84-1.92-.68-3.73s-.4-1.67-1.65-2.67c-1.65-1.31-3.56-3.13-5.6-3.4-.53-.08-1.73-1.66-1.91-2.22-.48-1.63-.62-2.05-1.87-3-.57,1.71-1.25.85-1.47-.37s0-.91-1.3-.56-2.07.49-1.26,2c.29.52-.73,1.74.19,2.44a12.52,12.52,0,0,1,2.59,1.94c.59.83.49,2.11,1.26,2.79s1.4,1.44,2.56,1.5c.76,0,2.09,0,.9,1,1.08.88,6.5,3.13,5.12,5-.55-.28-2.11-2.43-2.75-1.82a2.42,2.42,0,0,0-.95,1.67c-.17.78.32.72.88,1.15,1.57,1.23-1.08,1.57-1,2.31.14,1.06-2,2.91-1.93,1.19a2.21,2.21,0,0,0-.75,3c.53,1.05-1.63,1.4-1.88.55-.46-1.54-5.64-1.36-3.61-3.61.29.34,3.09.59,3.74.44a9.19,9.19,0,0,0,2.68-.62c.67-.45.08-.92.8-1.31.5-.25-.72-3.46-1.07-3.51s-1.47-.08-1.36-.74a.83.83,0,0,0-1.28-.84c.12-.7-1.42-1.86-2-1.78-1.11.16-1.73-1-2.53-1.74-1.43-1.38-3.36-2.08-3.8-4s-.42-1.91-1.93-2.69c-.78-.42-1.75-.73-2.32,0-.41.5-4.5,3.5-5,3.33l-4-1.34c-.7-.21-1.77,1.25-2.29,1.73-.27.24.54,2.31,0,3s-2.34,1.19-3.09,1.57c-2.19,1.14-2.87,2.91-4.19,5.17-.39.67,1.32,1.29.49,2.38-.49.69-1.83,1.78-1.43,2.61-.48.12-1.6.16-1.87.61s-.78,1.65-1.22,1.69a29.44,29.44,0,0,1-4.2,0c-1.25-.05-2,1.48-3,1.79s-2.48-1.68-1.39-2.47c-1.08.52-1.6-1.32-3-.53-1.09.63-1.9-.32-2.88.43a9.05,9.05,0,0,0,.31-2.43c0-.45-.07-.9-.11-1.36s-.51.11-.69-.16c-.83-1.27-.22-1.57.12-3s1.34-3.52.78-4.85a6.76,6.76,0,0,1,0-3.91c-.76.6-1.27-.56-1-1.29s1.72-.68,2.22-.76a3.21,3.21,0,0,0-.24-.45c1.32-1.19,1.94.43,3.09.14a5.46,5.46,0,0,1,3.82,0c1.24.4,2.28-.24,3.41.18a7.14,7.14,0,0,0,3.07.33c2.18-.47,1.9-4.73,1.89-6.48s.27-2.18-1.28-2.67c-.91-.27-1-1.89-.83-2.39-.84.2-.51-.31-.86-.46s-1.33-.23-1.49-.34c-.67-.53-.92-.86-1.74-.82a1.2,1.2,0,0,1-1.36-.66c.23,0,.46-.19.69-.22a1.37,1.37,0,0,1-.9-1.32,5,5,0,0,0,2.75-.48c1.67-1.18.72.93,1.8.66.39-.09,2.46-.43,2.37-1a9.89,9.89,0,0,0-.85-2.58c.44,0,1.26-.11,1.42.38.22.68.13.72.76.8a4.62,4.62,0,0,0,2.92-.4c-.28,0-.55-.22-.83-.26.61-.86,1.77-1.15,2.67-1.58,1.28-.63-.06-1.47.56-2.49.28-.45,2.27-.91,2.84-1.18a4.52,4.52,0,0,1,2.72-.33c-.38-.13-1.44-.26-1.47-.71,0-.1,1-.2,1.09-.29s0-.67.2-.92a5.48,5.48,0,0,0,1.09-2.59c.11-.54,1-.43,1.37-.83,1.15-1.39,2.3-.59,3.65-1,.2-.07,0-.72.34-.78s.75-.11,1.13-.17a7.07,7.07,0,0,1,1.77.2c-.2-1.08.71-.8,1.47-.89-.41-.16-1.56-1.12-1-1.57.93-.72.11-.67-.19-1.62s.29-1.56-.56-2.25c-.67-.56-.52-.94-.56-1.89-.07-1.56.24-3.31,1.88-3.38,1.25,0,2.29-1.38,3.49-2-.85,1.22-1.28,3.83.54,4.28-1.06,1.69-3.07,2.25-2.71,4.51.28,1.65,1.82,3.06,3.36,2.33L422,2949c1.5.88,2.79-1.26,4.09-1.42a2.74,2.74,0,0,1,1.87,1.23c.26.88,1,1.07,1.78,1.48a2.48,2.48,0,0,0,.14-.82c-.42,0-.84-.09-1.26-.12.92-.59,4.18-.65,4.82-1.5,1-1.38,4.07-2.23,5.47-1-.13-.08-.65-.24-.92-.39,0,1.41,2,1.61,2.69.75.29-.34.4-1.16.58-1.34s.57,0,.75-.19c.48-.44,1.12-.67,1.47-1.23a3.81,3.81,0,0,1-.93,1.34c2.38,1.16.95-3.23.9-4.31a3,3,0,0,1,.71-2.22c.51-.61.1-1.58.94-2.2,2.13-1.59,2.64,1.92,4.21,2,.87.07,1.49-1.19,1.37-2-.09-.5.33-2.5.2-2.6s-.69.38-.86.25a13,13,0,0,1-.94-1c-.23-.27-.68-2.05-.44-2.15,1.48-.65,3.32-1.6,5-1.39l3.66.46c1.67.2.24-.41,1.24-1.05.65-.4,1.58-.15,2.34-.62.51-.33,1.71.15,2.3.24-.35-1.13-2.6-1.53-3.57-1.95.17-.26.17-.69.36-.93-3.41.66-6.9,1.49-10.38,2.16-.36.08-1.8.6-2,.23a3.22,3.22,0,0,0-2-1.74c-1.36-.55-1.23-.43-1-2a5.39,5.39,0,0,0-.05-2.62c-.18-.72-.94-2.38-.79-3.13s1.53-1.73,2-2.25c1.11-1.26,2.6-2.06,3.66-3.39.54-.66,1.38-2.25,2.11-2.61s1.75.35,1.34-1a3.4,3.4,0,0,0-3.47-2.58c-2.36-.09-2.57-.18-4.22,1.67-1.05,1.17-1.59,2.12-.74,3.61s-5.66,4.66-6.2,5.36c-1.62,2-4.33,5.26-2.59,8.25.74,1.29,2.88,1.25,3.55,2.73.47,1-1.31,1.94-2.08,2.61-1.32,1.16-2.36,1.61-2.63,3.43-.22,1.47-.16,3.63-.74,5-.79,1.84-2.16,1.84-3.76,2.19-.62.11-.59.89-.76,1.53s-.68.54-1.41.58c-1.12.08-1.23.36-1.41-.88a5.64,5.64,0,0,1-.21-2.29c.47-1.3-1.39-2.85-2.14-3.85-.33-.43-.14-1.24-.37-1.74a11.34,11.34,0,0,1-1-2.05c-.16-.66.43-1.81-.31-2s-.73-1.26-.95-1.91c-.45,1.76-.79,1.93-2.17,2.93-1,.7-1.74,1.76-2.74,2.37-1.53.94-5.46.45-5.54-1.94-.1-2.94-1.24-5.78-1.1-8.71.13-2.51.3-2.53,2.12-4.06a15.56,15.56,0,0,1,3.28-1.94,10.71,10.71,0,0,0,3.73-2.36c1-1.1,2-2.12,3-3.13,2.26-2.16,3.28-4.83,5-7.53s3.76-4.57,5.78-6.85,3.76-4.65,6.39-5.85a71.27,71.27,0,0,1,8.9-3.25c1.17-.35,1.77-2.24,2.84-2.87a6.41,6.41,0,0,1,3.68-.64,8.55,8.55,0,0,0-2.61,4.43c1.32-.25,2.47-2.48,3.32-3.55.14.67.28,1.34.4,2,.61-.79,1.21-1.6,1.8-2.39.25-.35,1.8,0,2.22,0-.38.62-.74,1.23-1.11,1.85,1.59,1.21.67-1.74,2-1.22s2.72,1.06,4.08,1.6c1.15.46-1,1.54-1.42,1.64a12.63,12.63,0,0,1-3.33-.32c.51.93,1.57.59,2,1.68.12.27,1.49-.16,2-.13,1.17.11,2.27.62,3-.42.35-.49,1.8.59,2.3.84-.28,1.07-1.3.39-2.07.2-.33,2.24,3.55,1.37,4.6,1.41,2.2.08,3.18.63,5.17,1.75a27.86,27.86,0,0,0,5.41,2.57c1.49.47,3.42,1.43,4,3.15s.48,1.66-.47,3.12c-.6.91-.79,1.47-1.73,1.79a7.19,7.19,0,0,1-5,.31,46.87,46.87,0,0,1-10.93-3.72c1.08,1.09,4.17,3.13,4.17,4.76s-.28,4.94,1.2,5.58c1.69.73,3.85,2.66,5.5,2,1-.4.46-2-.5-2s-1.38-.89-2.05-1.74c1.53-1.39,1.63-1.07,3.51-.42,1.53.55,3.07,1.06,4.59,1.6a23.78,23.78,0,0,1-1.17-3.49l3.45-2.32c.61-.41,1.74-1.58,2.46-1.36l3.66,1.1c.16-.7.74-2,.49-2.65-.07-.2-1.27-2.12-1.34-1.87.28-1.13.55-2.24.81-3.36.11-.39-1.2-1.59-1.47-1.92l4.43.58c1.11.14,1.85,1.83,2.53,2.74-.74.07-2.9-.14-3.29.54-.64,1.1.55,1.83,1.25,2.76s1.92.36,3.05.19c1.38-.19.39-1.24,1.14-2.23.33-.45,1.61-.73,2.09-.95l4-1.81,6.09-2.77c.58,1.92.57,1.9,2.36,2.35,1.16.28,1.77-1.89,2.77-1.78,1.51.18,2.41.4,3.78-.26a4.28,4.28,0,0,1,3.71-.31c-.26.45-.53.9-.78,1.35,1.87.56,1.79.65,3-1s.4-1.68-.74-3.18c2.63-1.15,6.42-.73,9.11.34l5.46,2.17c1.31.52,2.62,2,3.78,2.86.09-.69.77-3,.22-3.39l-4-3c-.88-.65.53-2.53.92-3.44.33-.75-1.75-1.55-2.35-1.94l3.95-3.15c.9-.72,1.28-3.28,1.65-4.41.5-1.41,6.76.08,8.23.22l-1.69,4.63c-.3.8,1.07,2.66,1.43,3.41.66,1.36-1.52,7.41-.44,8.14,1.29.86,2.76,1,2.07,2.67-.39.91-.84,3-1.65,3.55l-4.26,2.6c-.61.39-2.54-.27-3.28-.36,1.81,1.48,3.87,2.78,6.31,2,1.93-.62,4.1-3.32,5.54-4.78,1.6-1.62-2.53-4.07.86-5.11.65-.19,2.49-1.19,3-.6l2.58,3c-.19-1.31,0-2.57-1.08-3.32-1.38-1-1.54-1-3.18-.75-.38.07-3.71.8-3.8.49-.24-.91-1.07-2.52-.67-3.4.52-1.1,1.77-2.54,1-3.61-.57-.86-2.37-2.58-1.75-3.54.81-1.27,2-1.47,3.33-2,1-.4.13-2.68-.12-3.27.72-.18,2.13,1.77,1.71,2.57-1,1.89-.88,1.84.16,3.71.7,1.26,5.91,1.27,7.24,1.37a56,56,0,0,1-5.56-2.29c-2.12-1,1.55-2.57,2.39-2.84,2.54-.81,3.6-.19,6.13.77a13.41,13.41,0,0,1,2.21,1.36c.68.46,1.65,0,2.43-.08-.25-.68-.52-2.28-1-2.75s-2.3-.39-3-.5c-.86-.15-1-3.91-1.2-4.87q4.26-.45,8.54-.87c1.61-.17,3.22-.34,4.83-.49,1.07-.12.65-1.24.67-2.32.07-2.11-.1-2.14,1.53-3.11a26.33,26.33,0,0,1,3.64-2.15c2.64-1,5.87-1.07,8.62-1.59,5.21-.95,10.23-1.58,15.21-3.48,1.16-.45.64-2.35,1.59-2.83,1.47-.77,2.95-1.5,4.41-2.26,1.75-.9,4.93-.9,6.23,1l-4.16,1.26,6.59.95-2.71,2.37,3.65.24c0-.47-.19-2.3.26-2.28,1,0,1.9.07,2.84.1,1.43,0,3-.26,4.25.58s3.33,1.72,4.27,3c.24.33,1.46,1.56,1.3,1.92s-.57,1.85-1,2.1l-17.69,10.88,12.26-3.47-3.15-.48c1.26-1.08,3.19-2.07,4.68-1,2.24,1.64,2.76,1.57,5.45,1.31,3.51-.33,7.08.4,10.59.78l-2,1.18c.86.42,2.43,1.63,3.33,1.58l4.2-.22c.84-.05,3.14.38,3.29-.69.3-2.16.09-2.08,2-2.11a24.49,24.49,0,0,0,4-.1c1-.19,3-1.06,3.94-.75s2.2,2.48,2.89,3.26c.41.46-.5,3.07-.51,3.77s.11,3.77.49,4c1.29.75,2.57,1.47,3.86,2.2.57.33,2.28-2.57,2.69-3.09,1.1-1.48.9-1.65,2.4-.68s1.82,1.48,3.52.94c1.08-.34,2.37-1.15,3.44-.62.77.4,2.48,1.76,3.3,1.43,1.31-.55,2.62-1.08,4-1.63-.37-.67-1.63-2.1-1.14-2.76.37-.5,1.58-2.74,2.16-2.67l7.62,1a46.16,46.16,0,0,1,5.75,1.47c2,.51,4.78.68,6.6,1.71,1.12.62,3.66,4.77,4.78,4.57l7.58-1.29c2.08-.35,4.07.63,6.09,1.22,1.23.35,1.8.18,2.2,1.48a4,4,0,0,1-.07,3.1c2.14.71,3.79,1.51,6,1.12a17,17,0,0,1,6.7-.12c.92.14,2.19.71,3,.11,1.25-.93,1.1-.95,2.19.13.8.77,1.93,2.46,2.92,2.87.72.28,2.24-.23,3-.32-.23-1.69-.47-3.37-.71-5.05l10.86.85c2.83.21,5.55,2.19,8.13,3.44,3,1.45,5.83,3,8.71,4.63,1.77,1,2,1.11,2.78,3.14.85,2.28.61,3,2.85,3-.26-.92-.51-1.83-.79-2.76a15,15,0,0,1,5.55.83c1.46.51,2.84,2.2,4.06,3.2-.74.61-1.84,2-2.73,2.21S799,2908.26,798.21,2908.14ZM514,2986.23c-.39-.35-.38-1.43-.78-1.68-1.75-1.08-2,1.68-2.05,2.68-1-1.7-1.22-2.42-.38-4.26-.74-.33-2.35-.67-2.88-1.31s-.39-2.37-.5-3c0-.06-2.45-1-1.37-1.27s1.33,1,2.4.21c-.71-.67-1.4-.8-.81-1.68a2,2,0,0,1,1.69-.69c1.25.21,3.18.14,4.24.63a2.46,2.46,0,0,0-1.49,2.26c.77-1.09,1.07-1.78,2.4-1.94-.66-2.09-1.13-.71-2.87-1.26.27-.91.87-1.95.4-2.8-.19-.37-1-2.2-1.6-1.46s-1.67,0-2.55-.37c-.65-.26-1.75.82-2.42.94-1.72.31-1.6-.59-2.1,1.55-.15.59-2.09,1-2.59,1.26-1.2.5-1.11.56-1.4,2-.12.65-1.13,1.35-1.56,1.81a2.29,2.29,0,0,1,2.23,2.17,8.19,8.19,0,0,0,1,4.26c.47,1,1.63,1.36,2.18,2.33.92,1.57,1.22,2.08,2.74,2.82-1.26.39-1.51.24-1.85,1.64a20,20,0,0,1-.87,2.5,5.25,5.25,0,0,0-.17,2.76c.11,1.21.43,1,1.53,1.25.94.23,1,.94,1.74,1.17l2.78.87c1.19.37,3.25-.39,4.5-.55a14.33,14.33,0,0,1-.19-4.42c.44-2.27-.58-1.23-1.48-2.85a7.91,7.91,0,0,0,.85.06,4.15,4.15,0,0,0-.43-1.37c-.24-.25-1,.06-1.25-.21-.6-.76-.22-1.51.11-2.23a11.66,11.66,0,0,0,4.1.23C515.49,2987.19,514.61,2986.8,514,2986.23ZM154.2,2859.78c.93.17,2.05.72,2.92.06a4.17,4.17,0,0,0-.68-.59C155.66,2859.28,154.79,2859.09,154.2,2859.78ZM232,3046.22a7.58,7.58,0,0,0,2.43,1.28c.48.14,1.09-.68,2-.38a7,7,0,0,0-.51-.78C234.83,3046,232.91,3044.89,232,3046.22Zm-7.48-71.84-.29.3.2.14c.37-.44.53-.64.37-1.12-.08.11-.17.22-.24.33a.89.89,0,0,0-1.36-.51c-.73.3-1-.4-1.74.15l.59.14C222.78,2974.12,223.85,2974.82,224.54,2974.38Zm-4.25-1.68c-.44-.32-.52-.13-.65,0,.15.16.3.3.44.46C220.16,2973,220.21,2972.85,220.29,2972.7Zm1,1a2.58,2.58,0,0,1,0-.29l-.63-.34-.43.38A2.44,2.44,0,0,0,221.31,2973.71Zm58.59-15.4c.29-.62.58-1.23.86-1.84-1.77-.72-3.68,1.68-4.33,3.25a15.84,15.84,0,0,1-4,5.84,4.35,4.35,0,0,0-.26,2.71c.44.69,2,.49,2.59.42a9.85,9.85,0,0,1,6,.8,1.35,1.35,0,0,0-1.05,1.46c1.78-.36,2.15-1.59,4-1.72-.25,1.37-.45,1.38.76,1.85,1,.39,1.16.41,1.76-.49s-.09-3.33-.34-4.41c-.16-.71-1.41-1-1.34-1.42.17-1.19,0-1.22-.76-2.12-.6-.69-3.1.23-3.84.43-.05-.46.07-1.45-.34-1.63s-1.07-.29-1.07-.72C278.52,2959.33,278.93,2959.21,279.9,2958.31Zm-24.08,88.37c.5,1.24,2.64.24,3.14-.53a4,4,0,0,0-.35-.36C257.65,3045.71,255.1,3044.9,255.82,3046.68Zm-17.67-4.37c.88-.23,1.74-.5,2.61-.77a4.53,4.53,0,0,0-2.06-1.22c-.61-.11-.94-1-1.23-1a4.34,4.34,0,0,1-3.5-1.7,3.13,3.13,0,0,0-.15.32c-2.54-1.68-5.31-3.23-8.23-3.51a13,13,0,0,0-4.8.63c-1.37.34-1.74,1.68-2.86,2.37,2.2,1.16,4.71-3.79,6.89-1.59a1.47,1.47,0,0,1-1.12.22,1.52,1.52,0,0,0,1.58.58c.69-.22.75.32,1.48.34,1.2,0,2.33.9,3.61,1.08s1.23,1.57,2.55,2.18c.34.16,1.63-.18,1.62.72,0,.29-1.1,1.12-1.31,1.34C234.85,3042.57,236.5,3042.16,238.15,3042.31Zm24.13-72c-1,1.92.76,2.23,2.06,2.83s1.63-.15,2.54-1.14l-4-.32C262.67,2971.21,262.48,2970.74,262.28,2970.28Zm-.81-8.46c1.33,1.06,4.36,3.6,6,2.25A7.56,7.56,0,0,0,261.47,2961.82Zm62.34,143.67c.65,2.81.71,2.76-.83,5q-2.84,4.11-5.68,8.19c-.88,1.3-2,2.29-2.07,3.9-.29,4-.59,8.06-.87,12.09-.19,2.66-3,5.4-4.33,7.52-.61.91-1.11,2.44-2.19,2.5s-3.46-.3-4.34.31c-2.65,1.82-5.31,3.66-8,5.47-.53.38-.51,4.34-.6,5.05s.05,2.28-.48,3l-6.61,8.49-6.06,7.79c-.46.58-6.82-2.16-7.79-2.46-.58,2.17,3.05,2.41,3.43,4.29.19.93.9,2.69.73,3.6s-1.37,2-1.82,2.71c-1.34,2-3.13,1.91-5.28,2.49a9.24,9.24,0,0,1-5.16.09c.41,1.33.74,1.9.24,3.16-.29.79.08,2.07-.38,2.39-2.1,1.47-3.33.84-5.53-.26a17,17,0,0,0-.07,3.63c.17.78,1.46,2.09,1.12,2.84-.67,1.44-1.33,2.88-2,4.33s-.89,1.28-2.36,1.64c-1.27.3-1.51,1.41-2.17,2.61-.4.77,1.16,2.21,1.62,2.87.59.83,2.52.11,2.12,1.46A6.32,6.32,0,0,1,257,3213c-.74.9-1.82,1.8-2.18,3-.54,1.74-1,1.81-2.49,2.69s.17,5.43.45,7.08c.12.61.09,2.06.58,2.45,1.12,1,2.25,1.93,3.36,2.89,1.95,1.67,3.29,1.38,5.8,1.43l-6.84,3.1c-1.82.83-2.17.35-4-.55l-8.06-3.89c-1.39-.67-1.62-2.22-2.25-3.72-1.51-3.55-4-7-3.52-11,.66-5.91,1.34-11.8,2-17.71.64-5.67.89-11.59,2-17.21l4-21.21q1.22-6.47,2.44-12.89a42.2,42.2,0,0,0,1.09-5.75,31.9,31.9,0,0,0-.61-4.94c-.13-1,0-3.5-.54-4.38s-2.49-1.73-3.34-2.32c-1.67-1.15-3.32-2.31-5-3.46s-2.15-2.34-3.18-4.26l-6.13-11.46c-1.67-3.15-3.36-6.29-5-9.44-1-1.94.72-5.52,1.2-7.54.24-1,.35-3.24,1-4l2.88-3.7c2.14-2.74,4-4.34,3.43-8.2-.13-.88-.66-1.35,0-2,.09-.09-.22-1.33-.11-1.78.26-1.18-2.34-2.26-2.07-3.4.36-1.4.28-1.24-.88-1.9-.83-.49-.82-.42-1.68,0a8.62,8.62,0,0,0-1.7,1.39c-.3.27.55,1.26.74,1.6-1.65.71-1.58.9-2.34-.9-.33,1-2-.68-2.91-.86-.48-.09-.81.45-1.1.24-.5-.38-1-.78-1.51-1.16-1-.77-3.08-1.74-3.79-2.88-.61-.95-.31-2.41-1.08-3.3-2-2.27-3.15-4.27-5.88-5-2.13-.59-5.66-.74-7.33-2.38l-4.41-4.35c-1-.95-2.31.05-3.47.41-2.6.81-5.27-1.09-7.76-2.09l-6-2.44a7.72,7.72,0,0,1-2.32-.95l-3.92-4c-1.21-1.22-.49-1.95,0-3.67.32-1.11-1.76-3.3-2.34-4.18a12.25,12.25,0,0,0-2.07-2.51c-1.4-1.31-2.82-2.6-4.22-3.92-.32-.3.08-1.2.15-1.61s-.69-1.11-.92-1.41a17.78,17.78,0,0,0-3.09-3.42c-1.06-.82-2.18-1.32-2.59-2.69-.22-.76-.81-4.43-1.45-4.72l-3.92-1.79c.44,1.47.74,4.35,1.67,5.47a18.43,18.43,0,0,1,3.48,5.11,4.77,4.77,0,0,0,1.74,2.35,5.69,5.69,0,0,1,1.23,2.51,8.85,8.85,0,0,1,.85,2.88c.07,1.59.76.45,1.24.81s1.59,1.37,1.48,2.19c-.15,1.09-1.1,1.34-1.56.51-.94-1.73-2.61-2.76-4.12-3.85-.43-.32-.27-2.3-.31-2.86-.07-.86-1.32-1.44-1.91-1.93s-1.14-.25-1.77-.81-1.45-1.28-2.16-1.93c.86-.1,2.89-.28,1.76-1.95-1-1.47-1.43-2.19-2.94-2.93-1-.48-1.24-2.13-1.65-3.18Q150,3012,149,3009.31c-.76-1.95-3.29-3.64-5.15-4.16-1.52-.41-2-.28-2.71-1.77s-1.5-3.23-2.24-4.85c-1.09-2.38-3.25-3.85-4-6.46-1-3.38-.92-5.58-.75-9.17.14-3,.3-6,.45-8.94s-.53-4.7-1.44-7.47A38.66,38.66,0,0,1,138,2968c.06-2.43.17-2.73-1.4-4.42a21.48,21.48,0,0,0-3.68-3.12c-1.22-.87-2.53-.87-3.85-1.45-2.17-.95-2.5-1-3.47-3.32-1.12-2.65-5.06-4-4.8-7,.23-2.7,0-2.49-2.12-3.85-.31-.2-1.61,2.67-2.53,1.27-.68-1.06-1.78-3.74-2.84-4.25a5.34,5.34,0,0,1-2.79-2.54c-.94-1.4-1.82-3.35-3-4.52a24.21,24.21,0,0,0-3.52-2.43,32.91,32.91,0,0,0-8.13-4c-1.2-.45-2.66.57-3.87.29s-2.76-1.69-3.88-2.38c-1.55-.95-2-1.3-3.73-1.13-1.54.15-2.31.56-1.72,2.52.48,1.66-5.84,3.37-7.24,3.84a1,1,0,0,1,.73-1.43c-1.07-.32-.26-3.41.42-3.78a6.76,6.76,0,0,1,4.13-.88l-1.22-1.1,1.4-1a12.5,12.5,0,0,0-6.33,2.93c-2,1.53-2.85,3.26-4.18,5.6l2,.47a27.72,27.72,0,0,1-6.44,5.94c-1.27.93-5.29,1.95-5.45,3.84-.15,1.71-5.38,2.68-6.87,3.11a11.43,11.43,0,0,1-1.86.28c-.78.09-.39.5-1,.89a3.92,3.92,0,0,1-3.51.75c1.25-1.21,2.55-1.53,4-2.41,1.08-.66,4.22-3.68,5.18-2,.68-1.21,3.19-4,4.56-3-.47-1.29,1.89-2.12,2.15-3.56a3.16,3.16,0,0,1,1-2.28c.52-.52,1-.79.5-1.58-1.7.93-3.54,2.45-5.29,1.17-.6-.44-1.76-1.75-2.47-1.44l-2.66,1.17c-.32-1.8-.63-3.61-.94-5.41-.44.25-2.75,1.94-3.08,1.68-.87-.7-2.54-1.55-3.12-2.55s-.71-3.17-1-4.42c-.23-1,.6-1.85,1.12-2.72,1-1.72.89-2.17,2.74-2,1.53.15,1.76-1.09,3.1-1.64s2.44.51,3.09-1.16c.52-1.31-.25-1.56-1.16-2.56l1.23-.7c-.58-1.74-2-.19-3,.37-1.26.73-1.45-.14-2.71,0-2.52.33-5.35.85-6.73-1.9.31-.09.61-.42.93-.48-1.24-.42-2.88-.61-3.73-1.81,1.81-1,3.09-1.81,5.09-1.81l-.43-.56a8,8,0,0,1,4.16-1.18c-.08,2,1.45,1.7,3,2.1,1.35.35,1.78-.25,2.95-1.08l-1.64-.7.64-.25c-.59-.48-.79-1-.14-1.49a16.68,16.68,0,0,1-4-.81c-1.12-.38-1.11-2.15-2.21-2.66-.73-.36-3.92-1.23-4.23-2-.15-.34.56-1.85.67-2.24s.8-.19,1-.2c1.19-.08,3,.29,3.78-.81a21.84,21.84,0,0,1,2.77-3.59,14,14,0,0,1,6.93-3.2c1.6-.27,2.9-.27,4.2-1.3,1.78-1.43,1.68-1.46,3.64-.42,1.75.92,6.7-.34,7.46,1.79.56,1.57,5.72,1.43,7.43,1.65,2.57.33,5.16.63,7.72,1.1l11.37,2c2.49.45,4.84,1.89,7.18,2.94.41.17,3.06-3,3.49-3.46.69-.73,2.06,1.4,2.88,1,1.34-.59,7.38-4.27,8.26-2.84l-6.59,3.48c1.7,1.18,7.3-3.72,7.78-1.63.67-.77,1.31-1.53,2-2.31.53-.62-.79-.8.18-1.58a75.64,75.64,0,0,0,5.21,5.52,6.41,6.41,0,0,1,2.19-3.73c.84.87-.62,1.26.52,1.92.42.25-.27,1.15-.46,1.56.72-.2,2.09-.22,2.68-.69.22-.18-.27-1.07.14-1.12l1.24-.19c1.47-.2,3.41,1.19,4.76,1.78,2.8,1.21,6,1.65,8.92,2.42-.07-.21-.14-.41-.2-.63,1.87.07,2.84,1,4.46,2,1.21.83-2.47,2.1-2.74,2.22,1.23.39,2.55,1.06,3.84,1l6.38-.51c1-.07,2.71-.37,3.4.68,1,1.45,1.95,2.89,2.92,4.35-.15-.63-.3-1.27-.44-1.9-.1-.39.3-.74.25-1.1-.24-1.51-.89-1.14-.07-2.6.57-1,4.91-1.11,3.94-2.61-2.11.85-3.65,1.53-5.88,1.48.5-1.92,1.28-1.72,3-2.3s2-.77,3.69.17c.47.26.77,1.36,1,1.84.33.66.82.57,1.49.73a26.13,26.13,0,0,1,3.92,1.22c1.1.41,7.15,1.1,7.41.26.51-1.74.59-2.56,2.5-2.55a16.87,16.87,0,0,1,3.73.94c-.16.58-.91,2.31-.73,2.84s1.88,1.26,2.35,1.58c-.62-2-1.34-3.69,1.06-4.07,1-.16,1.57-1,2.31-1.78.51-.5.15-1.17,0-1.89l-1.87.89c-.22-1.94,1.18-2.24,2.54-2.36-.07-1.52-1.5-.44-2.43-.79-.73-.29-3.26-.77-3.58-1.56a9.79,9.79,0,0,1-.61-4.52c0-1.76.84-2,2.17-1.45.23-.84-.34-1.15-1-1.06,1.31-.84,1.49-.73,1.44-2.37a6.09,6.09,0,0,0-.73-3.29c-.49-.94-.13-2.32-.07-3.39.05-.84,1.43-.38,2.08-.37-2.37-2.61,1.8-1.87,3.42-1.86a17.93,17.93,0,0,1,6,.86c-.9,1.32-2.14,4.17-3.44,5s-4,.11-5.2.09c3.9.58-.59,3.12-.34,4.37,2-.35,3.11,1.4,3.47,3.27.23,1.22,2.19,2.67,3,3.63l-2.91,1.95c1,.37,1.74,1,2.63.4s1.68.14,2.62.6l-1.38,1c.92.79,1.42.82,1.11,2.08s-.5,1.52.6,2.23a4.76,4.76,0,0,0,1.16-2.63c0-.45.42-2.28,1.23-1.79.52.33,2.3,1,2.43,1.64.24,1.07.91,2.31-.41,2.74,0-.27-.15-.54-.14-.8-2.71,1.51,3.33,6.92,3.59,4,.08-.83,0-1.32.56-1.84.28-.27,1.19-.81,1.19-1.26,0-2.18,0-2.07,1.87-2.89-.74-1.15-1.42-1.71-1.15-3.07s1-1,2.25-.83c.79.14,3,0,3.53.7a4.12,4.12,0,0,0,2.87,1.73c-.63,1.15.38,1.88-.29,2.68-.43.51-1.87.32-2.48.37a9.1,9.1,0,0,0,1.84,3.11c1,.91,1.43,1.64.36,3-.7.9-2.42,1.48-3.35,2.06s-1.57-.65-2.31-1.34c.37.85.74,1.7,1.12,2.55-.59-.31-1.16-.62-1.75-.92.07.24.15.48.22.71l-1.78-.41c-.39-.1-.07-1.13-.48-1.11-.9,0-2.15-.34-2.61.7.55.34,1.11.66,1.66,1a7.25,7.25,0,0,1-2,2.51c-1.33.74-1.81.12-3.16-.61-2.13-1.1-4-1-6.35-1.11l4.89,2.47c1.19.6,3.17.39,4.47.57-.51.88-1.39,3.31-2.26,3.71-.5.24-1.19.76-1.74.73s-1.34-.31-1.93.1c-1.81,1.28-2,1.37-4,.73-1.29-.39-2.59-.7-3.89-1.06l2.58,1.19c-.18.16-.3.4-.5.56a2.86,2.86,0,0,1,2.83.37c.65.37,1.66,1.33.57,1.84a5.14,5.14,0,0,1-3,.48c-.42,0-1.08,1.44-1.3,1.77-1,1.63-2.68,3.38-3.09,5.36-.47,2.23-.93,4.47-1.41,6.71.9.21,2.86.23,3.54.84s1.18,3.3,1.55,4.29c.65,1.81,1.06,1.16,2.8.77.91-.21,1.95.43,2.81.74a25.09,25.09,0,0,1,6.8,3.46c.73.53,2.13,2,3,2.12l3.9.41c.46,0,3,0,2.93.55-.07,1.81-.16,3.61-.23,5.41-.1,2.51,2.41,4.42,3.86,6.24s4.45-1.52,4.21-3.05-.53-3.2-.8-4.82c-.14-.85-1.26-2-1.73-2.71,1.57-1,4.63-2.17,5.73-3.75,1-1.41,1.25-5.27,0-6.49a18.86,18.86,0,0,1-2.44-2.61c-1-1.4-1.32-1.28-.07-2.43s1.49-1.07,1-2.91c-.27-1-.9-2.19-.58-3.2a4.89,4.89,0,0,0,.07-4c-.35-1.15.37-1.53,1.54-1.68,2.14-.26,4.11,1.6,6.21.61,1.34-.62,1.69.08,2.92,1,.58.42,2.25,1.15,2.44,1.93.3,1.17,1,2.09,2.28,1.89a4.5,4.5,0,0,1,2.74.83c-.57.95-.9,1.22-.72,2.3a5.16,5.16,0,0,1,.09,3c.28-.06.59.08.86,0-.51.65-2,1.7-1.19,2.43,1.37-4.09,6.29,4.83,7.31-.68.22.24.64.27.86.52.55-1.17,1.44-2.3,1.2-3.62-.17-.92,1.17-2.74,2.1-2.54-.12.49-.23,1-.33,1.48,2.13.1,3.56,4.46,4.57,6.22.57,1,2.29,2.93,2.36,4.05,0,.6-1,1.46-.92,2,.06.27,1.13.89,1.32,1.06a8,8,0,0,1,1.75,1.4c.39.65-.25,1.35.62,1.4a5.84,5.84,0,0,1,3.69,1c.93.65,2.78,1.53.75,1.84a21.24,21.24,0,0,0-3.37,1c.68.25,1.58-.24,2.31-.47-.5.91-2.11,1-3,1.27s-.59,2-.13,1.4a2.32,2.32,0,0,1,1.32-.83c.54-.2.33-.5.65-.68a6.2,6.2,0,0,1,2.62-.73,1.37,1.37,0,0,1-1-.53c.64,0,1.92.06,2.19.82.37,1-.75.93-.13,1.69.73-1.35,1.61-.64,2.76-.26.93.3.21,2.06,0,2.58-.38,1,.79,1.38,0,2.55a7,7,0,0,1-2.54,1.55c-.88.24-1.76,0-2.77.37a4.94,4.94,0,0,0-2.17,1.77c-1.54,1.69-2.8,1.94-5.08,1.71a39.57,39.57,0,0,0-6.71-.15c-2,.12-4.11-.57-4.64,2.14-.15.7-2.11.91-2.65,1.29a17.52,17.52,0,0,0-2.38,2.55c-1.34,1.45-2.08,3.18-3.67,4.35,2.72-1.32,4.18-4.19,6.9-5.51,1.86-.9,6.92-3.75,8.25-.41-.22-.12-.46-.16-.69-.27,1.37.93-.49,1.62-1.18,2.22-.88.76-1.6-.58-2.62.13.42.11,1.41,1.2,1.46,1.18a3.06,3.06,0,0,1,1.87-.1,3.29,3.29,0,0,1-1.23,1.9c.31-.12.7,0,1,0-.51,1.43,1,2.57,2.09,2.84-.13.09-.24.19-.37.27,1.58.76,3.12,1.41,4.49.41.05.26.09.5.14.75a2,2,0,0,0,.93-.28c-.93-1.21,1-3,1.6-3.94,1.24.45.53,1.53.25,2.5.89-.7,2.18.69,1.41,1-1,.45-2,1.05-3.1.86.25.2.38.58.62.79l-3.86,1.56a4.76,4.76,0,0,0-1.43.7c-.55.49-.7-.63-1.16-.26-.88.7-1.66,2.06-2.61,3-.63.61-1.25-.25-1.64-.4-1.35-1.93,1.91-3.6,3-4.4.78-.57.4.1.76.42.73.63,1.18-.24,1.85-.84-.86,0-2-.35-2.7.18a3.1,3.1,0,0,1,.71-1.38c-1-.25-2.28,1-3.11,1.59-.54.36-.53-.43-1.16.3-.32.38-1.05.15-1.5.15.66,2.09-2.88,1.34-3.35,2.28l-.43-.44c-.54,1.12-1.06,1.25-2.11,1.64-.7.27-.72.77-1,1.54-.42,1.1-2.43,4.79.32,4.5-.08-.17-.15-.36-.22-.52a2.92,2.92,0,0,1,.58.67c-.82.58-1.79.08-2.65-.13-.43-.1-.28,1.17-.92,1.21a7.85,7.85,0,0,0-4.67,1.43c1.25-.16,2.25-.77,3.47-.95l-.4.31c.34,0,.69.08,1,0a5.48,5.48,0,0,1-2.37.93c-.77.05-2.12-.23-2.57.59,1.88.21-.83,3.79-1.52,4.38.44-.78-.91-1.29-1.21-2.21.06,1.11,1.45,2.6,1,3.6a22.43,22.43,0,0,0-1.7,3.29l-.2-.06a5.6,5.6,0,0,1,.65-2.09c-.49-.31-.26-1.3-1.24-1a9.3,9.3,0,0,1,.49-2.19c.06-.12.68-1.54,0-1.06-1.61,1.16-1.13,1.92-.69,3.89a4.11,4.11,0,0,0-1.54-.79c.4.59,1.38.77,1.7,1.36s-.33,1.76-.21,2.19c.23.79,1.33.38,1,1.69-.22,1-.88.95-1.8,1.25.79,0,2.18-.26,2,.93-.07.49-1.74.51-2.18.59.24.14.44.38.68.51-.36.13-.55.37-1,.36.39,1,1,.09,1.62.48l-1.36.74c-.35.18-.84-.39-1.12-.23-.55.32-1.1,1.6-1.48,2.16-.28.4-1.25.22-1.76.87a6.32,6.32,0,0,1-1.5,1.7c-2.15,1.27-2.53,1.85-3.69,4.22a5.85,5.85,0,0,0,.32,4.22,38.47,38.47,0,0,1,2.16,5.81c.32,1.08.6,3.88-.19,4.66-.59.6-1.09,1.39-1.79.41-.22-.31-1.49-1.45-1.51-1.55a14,14,0,0,0-1-2.32c-.38-.84-.81-1.34-.55-2.34l-.45.4c-.38-1.29.8-3.13-.48-4-1.13-.78-1.74-2.32-3.07-1.89-.72.23-1.48.76-2.15.32a9.22,9.22,0,0,0-2.05-1.33c-1.17-.33-3.14,1.24-3.48-.75-.22,1.73-4.06.48-5.2,1.38.79.08,3.74.44,1.54,1.5.23.12,1.43.53,1.47.75a.64.64,0,0,1-.81.78c.31-.8-.87-1.1-1.44-1.45.12.56-.13.75-.14,1.18-.54-1.11-1,0-1.74-.5-.91-.69-1.32-1.34-2.38-1-.6.21-1.45-.35-2-.58-1.08-.4-2.8.83-3.84,1.27-1.71.7-5.8,3.73-5.82,6.19,0,.75,1,1.52,1,2.28a7.15,7.15,0,0,1-.53,1.84,15.58,15.58,0,0,0-.95,4.13c0,3.54.48,6.08,2.43,9,1.16,1.73,1.59,3,3.47,3.5.39.13,1,1.09,1.34,1,.78-.3,1.56-.6,2.33-.87a6.84,6.84,0,0,1,2.09-.48c.55,0,1,.68,1.28.56a4.77,4.77,0,0,0,1-.48c.18-.15-.28-.62,0-.87a3.08,3.08,0,0,0,1.26-1.72c.44-1.49.31-3.25,1.89-3.88a12.35,12.35,0,0,1,3.51-.69c.89.1,3.45-.43,2.64,1.51-.32.75-1.36,3-1.91,3.07.28.16.12.44.76.42-.24.21-.43.49-.67.67l.12.16.36-.24a14.83,14.83,0,0,0-.75,2.78,1.81,1.81,0,0,1-.46-1.62,5.08,5.08,0,0,0-.62,1.06c1.19.06-.18,2.36.22,3.21s-.93,2.2-1.45,2.68c1.7.59,3.34.14,5.21.42.73.1,1.25-.54,2-.42a10,10,0,0,1,2.63.38c1.59.69,2.6,1.81,2.32,3.64-.2,1.18-.38,2.35-.56,3.53-.11.69-.66,1.28-.76,1.94-.39,3.2,3.48,8.41,6.39,7.22,1.8-.73,2.72-1.47,4.6-.9s2.53,1.54,3.89,3c-.1-2.26,2.72-5.34,3.8-7.17.33-.56,2.43-.91,3-1.11l4.58-1.65c1.4-.51,3.93.71,5.31,1l10.86,2.52c2,.45,3.94.48,5.46,1.93,2.82,2.72,5.64,5.42,8.47,8.13,1.78,1.71,5.68,1.75,8,2.31,2.12.52,3.79,4.05,5.13,5.81s2.71,3.55,4.08,5.32c.32.44,1.05,1.86,1.56,2L304,3093l8.73,3.15c2.4.88,4.9,3.53,7.05,5.07.39,0,3.09.07,3.16.37C323.2,3102.9,323.51,3104.19,323.81,3105.49Zm-93.4-123.91c0,.9-2.95,1.62-3.83,1.59a2.48,2.48,0,0,0-2.45.9c-.66.59-1.11,1.24-2,.79a1.63,1.63,0,0,1,1.26-1.22c-.33-.5-.4-.13-.57-.8a16.15,16.15,0,0,0-1.8,2.76l1.43.4c-.11.14-.2.29-.32.44,1.95.19,2.77-.77,4.44-1.38a15.42,15.42,0,0,0,4.2-2.46C230.74,2982.13,230.81,2981.88,230.41,2981.58ZM233,2981c1.49,1.43,4.68-1.33,3.05-2l1.36-1.18c-.92.37-2.86,1.85-3.53,1.56-1.17-.52-2.67.19-3.88.45C227.37,2983.16,231.89,2980,233,2981Zm-30.18-10c.89.47,1.76-.12,2.64-.41-.07.19-.15.38-.24.58,2.11,1.13,5.15-3.18,6.74-1.93a2.74,2.74,0,0,0-1.62,1.76c.74-.4,1.44-.45,2,.25s1,.37,1.69.76c.29.16,3.34-.89,3.86-1-.29.95.6.7,1.19,1,.44.21.65,1,1.06,1.4-.74-.1-1.51-.55-1.82.33-1.06-1.23-3.2-.56-3.93.71l-.2-.17c.11-.18.22-.34.34-.51-.3.21-.55.21-.84.48,0-.2-.06-.4-.09-.59a10.22,10.22,0,0,0-2.19,3.74c.86.18,1.27-1.48,2-1.93.12.79-.67,2-.89,2.83a11.43,11.43,0,0,0-.77,3.46c.11,1.78,1,6.39,2.78,2.81.94-1.89.62-3.19.26-5.1-.39-2.13,1.16-2.46,1.77-3.78,0,.38,0,.83,0,1.2.59-.63.35-1.72,1.5-1.82-1-1.3,1-1.07,1.6-.47s1.64.39,1.9,1.59a1.47,1.47,0,0,0-.36,0c.39.67.58,1.82-.12,2.29-.15.09-1,1.06-.95,1.42.18.66,1.8-.83,2.18-.81.88,0,.91,2.32,1.05,3,.49-.56,1-1.1,1.47-1.64.31-.35,0-1.32.2-1.82.34-1,1.44-2.23-.12-3,1.11-.56.61.87,1.55.75-.14.29-.06.37-.32.62.26.18.25.13.35.4.52-.5,1.48.21,2.05.05.08,0-.24-1,.69-.46-1-.95-.95-3.14-2.61-3.51-1.38-.3-3.09-.35-4.51-.64-.52-.1-3.45-1-3.22-1.36s-.05-.67-.28-1,.28-.62.17-1c-.31-1-1.17-.45-.64-1.94-2.13.37-2.11-.56-3.18-2.21-.57-.88-1.28.12-1.86-.14a4.67,4.67,0,0,0-2.18-.7c.78.66.1,1.13-.59,1.54a2.08,2.08,0,0,0,.39-1.1c-.64.35-.53,1.16-1.19,1.44a6.28,6.28,0,0,0,.29-.76c-1.13.2-.65,1.25-1.44,1.6l-2.87,1.27C204.47,2969.32,203.62,2970.17,202.77,2971Zm-54.27-66c-.28,0-.57-.28-.85-.28.24-.18.41-.5.68-.66-1-.13-1.66,1.09-2.66,1.25a4.47,4.47,0,0,1-3.12-.27c.35-1.05,1.94-1.37,2.81-1.77-1.82-.67-2.26-.84-4.05-.14-1.1.43-2.22.81-3.34,1.19s-2.46.58-3.66,1c-.62.2-3.3.32-1.37,1.59l.53-.38-.19-.38a7.76,7.76,0,0,1,3.65-.06,1.59,1.59,0,0,0-.22-.43,5.27,5.27,0,0,1,3.86.72c-.61,1-2.28.13-3.25.41a3.44,3.44,0,0,1,1.1,1.08,4.29,4.29,0,0,0-1.41.74c.83,1-.58,1.1-1.23,1.22.89.69,1.9.2,2.81.61.64.3,1.49-1.34,2.08-1.72.94-.63,2.65-.13,1.29.75-.53.34-.62.82-.88,1s-.79.2-1,.4c1.32,1.21,2.65-2.22,4.33-1.71a1.6,1.6,0,0,0-1.22-1.06c1.36-1.43,4.05.68,4.66-.87a3,3,0,0,1-.78.08c.05-.94.69-.44.91-1S148.33,2905.43,148.5,2905Zm18.29,13.72c-1.42-.61-3.69-1.06-5,0a17.05,17.05,0,0,0-1.27,1.6,2.77,2.77,0,0,1-2.07,1.08c-.92.1-2.43,0-2.87-1.14-.13-.31-1.71.06-2.15-.75-.11-.23-1.59-.85-1.78-.68s1.48,1.1,1.77,1.05c-.52,1.23,2.23,2.18.55,2.59-.53.14-1-.3-1.37.28s-.17.84-.89,1c.11.09.24.19.34.29-.55.46-1.21,0-1.89,0,0,.11.06.24.08.36-.71,0-1.26-.37-1.94-.32.89,1.22,3.17,1.49,4.58,1.71.88.14,4.3-.36,3.73-1.49,1.08-.94,1.72-.64,2.89-1.17a10.87,10.87,0,0,0,1.94-1.74,4.19,4.19,0,0,1-.5,0,4.49,4.49,0,0,1,2-1.31c.75-.2,1.23.13,1.87-.58-.57.25-.64.16-1.17,0,.5-.13,1-.27,1.56-.38a1.91,1.91,0,0,1-1.4-.29c.38,0,.77,0,1.16,0-1.4-.48-2.63.49-3.94,1.31.46-1.63,4.82-2.61,5.05-.74A7.09,7.09,0,0,0,166.79,2918.7Zm23.73,36.86c.12-.88,0-.47.56-.78,0,.24-.08.45-.12.68a.77.77,0,0,0,.23-.39c.69.25.48,1.14.4,1.81.19-.39.56-.82,1-.59s-.27,1.06-.37,1.42a4,4,0,0,1,.79-.41,2.29,2.29,0,0,0-.68,2.59c.28.92.85-.16.8-.66.17.1.37.1.54.2-.37-.82.32-1.74-.24-2.21a6.81,6.81,0,0,1-1.18-2.4c-.42-1.1-2.55-5.74-1.61-6.28l-.23-.09c-.3.37-.37.31-.82.39a1.32,1.32,0,0,1,.89-1c-.07-.06-.39-.34-.48-.39-.68,1.22-.67,1.59.32,2.3-.76-.34-2.19-1.07-2.51.13-.55,2.05-.22,1.65,1.27,2-1.73.39.39,2.44.82,3.3ZM45.91,2927.67c-1.43-.6-2.14.46-3.67.29.64,1,1.61,1.15,2.59,1.5.17-.53.77-.37,1.33-.43,0-.13,0-.24,0-.37C46,2928.24,45.64,2928.29,45.91,2927.67ZM132,2882a9.28,9.28,0,0,1,3.37,2.21c1.59,1.83,1.38,1.81,3.42.65l.94-.56c.29-.16.2.48.41.42a13.58,13.58,0,0,0,2-.89l.58-2.9c.94.62,1.94-.17,2.2-1.18s.68-.85,1.47-1.2c1.7-.75,4.4-1.29,5.83-2.55.92-.81.84-1.24-.2-2a13.11,13.11,0,0,0-2.27-1.5c-1.67-.67-3.45-1.36-4.88.23.11-.25.09-.57.18-.83-1.93.55-3.64-1.71-5.43-1.46-2.13.32-4.27.61-6.4.91.36.66,2,2.78,1.6,3.11-.71.67-2.46,2.32-1.38,3.25-1.88.18-.49.88-1.19,1.79s-1.58,1.54-1.32,2.67A4.81,4.81,0,0,0,132,2882Zm8.27-17.76c1.09.15.5-.73.82-1,.62-.57,1.45.23,1.28,1.34.56-.19,1.43-.27,1.84-.75s-.77-1.46,0-1.82c.44-.22.82,1.48,1.64.54a.76.76,0,0,0-.41-1.28c.7-.43,1.37.18,1.37-1.06,0-.59,1-.49,1.24-.21-1.61,1.05,0,2.66,1.38,2.27.95-.26,3.43-2.09,1.68-3a2.2,2.2,0,0,1,1.14-.23c-2.27-.42-.24-1.45.73-1.81-1.47-.79-2-1.38-3.56-.78.26.14.32.35.68.47-.68.64-1.32.17-2.06-.1a4.62,4.62,0,0,0-1.91.17c-1.49.2-2,.81-3.23,1.84-.81.69-2.33,2.61-3.36,2.74-1.67.18-2.92.68-1.55,2.37Q139.14,2864,140.28,2864.2Zm16.57-9.55c-1.43-1.26-1.45-1.41-3.17-.74.62.44,1.24.86,1.87,1.29Zm-84.31,80.73c.69.49,1.65-.26,1.94-.71l.34.32.35-.48-1.38-.58A2.35,2.35,0,0,0,72.54,2935.38Zm45.69,13.7c.12-1.23-2.88-.78-2.9-.52-.14,1.55,3.21,7.28,4.36,5.89l-1-.91A13.22,13.22,0,0,1,118.23,2949.08ZM71,2937c-1.92-1.15-2.19,2.87-.19,2.72.56,0,1-1,1.73-1.09a1.13,1.13,0,0,0,1.16-1.23c.51.24.85.08,1.07-.47l-.56-.13C74.64,2935.52,70.8,2935.28,71,2937Zm64.14,27.14c-.27-.47-1.11-.6-1.56-.75-.67-.21-.77-.68-1.14-1.35-1.1-2-1.43-1.57-3.43-2.23-1.58-.53-2.1-1.27-3.72-.75a26.94,26.94,0,0,0,8.92,6.94C136.46,2966.8,136.22,2966,135.13,2964.12Zm369.93,156.21c-.55-.77-2.33-3.53-2.44-.88-.09,2.11-.67,2.12-2,3.61-1,1.2-1.53,2.35-2.9,3a14.29,14.29,0,0,1-4.27,1.57c-.61.1-1.28,2.89-1.11,3.63.29,1.31,1.21,3.44,1.06,4.77s-1.78,2.87-2.24,4.25c-.55,1.68-.17,2.9.28,4.5a35.33,35.33,0,0,1,.84,4.57c.1.58,2.69,1.54,3.23,1.29.37-.19,3.11-1,3.16-1.15.34-1.17.7-2.34,1.05-3.5,1.27-4.26,2.53-8.52,3.81-12.76a16,16,0,0,0,.82-7.25l1.1,1.09c.95-2.3.16-4.21-.33-6.68ZM654,3050.76c-.49.91.07,2.31.26,3.32.13.8,1.21.88,1.85,1.13-1.36.71-.42,2,.65,2.14s.61-.67,1.82,0a3.47,3.47,0,0,1,1,1.17c.1-.57.19-1.13.29-1.69,1.16.43,1.36.28,1.4,1.65,0,.5,1.31,1.08,1.72,1.35.68-1.49-.82-1.08-.75-2.42,1,.52,1.73,0,.84-1-.42-.45-.45.51-.81.41a6.69,6.69,0,0,1-1.3-.78,3.75,3.75,0,0,0-1.22-.46c-.54-.12-.64.75-1,.73-1.11-.05-.69-1.14-1.09-1.94-.79-1.58.24-1,.16-2.48,0-.55.78,0,1-.28a5.12,5.12,0,0,0,.38-1.33c.53-1.7-.07-1-.38-2.46-.17-.78.76-1.16.25-2.25-1.6.8-.9,0-2.29-.32-.46-.09-1.38.24-1.46.74-.21,1.3-.43,2.61-.64,3.91-.12.71.6.92.38,1.71Zm3.74-18.14c.26-1.19,1.43-4.25-.79-3.2a5.49,5.49,0,0,0-2.59,3.72c-.33,1.69.79,2.79,1.62,4A17.46,17.46,0,0,0,657.74,3032.62Zm-4.92,29.78c-.38,1.76-.55,2.7-1.81,3.88a13,13,0,0,0-2.82,3.66c1.66-1,3.25-1.37,3.6-3.47.08-.56,1.38-1.21,1.82-1.54.12-.09-.29-1.48-.15-1.93A3.32,3.32,0,0,0,652.82,3062.4Zm14.2,5.38a1.77,1.77,0,0,0-1.26-1.31c.09.62.2,1.23.29,1.85-.72-.13-.57-.22-.9.25-.7-.44-.94.08-.84.92-1-.71-1.39.89-2.27,1.24.52-.63.44-1.68-.47-1.74s-.67,1.34-1.21,1.5c-1,.3-2.81,1.47-1.77,2.94.47-.39,1.39-3.49,1.77-1.23.2-.54.29-.4.59-.74.06.68.06.47.57.81-.1-.3,0-.68-.06-1,2.33-.31.79,1.89,1.23,3.05.29.75,2.16,2.14,2.5.94h.19c-.5,1.61,1.13,1,.84-.41-.22-1-.87-1.73.34-2.61.6.82.23,1.67.75,2.5,0-.49.06-1,.08-1.47l.36.22c.15-.67,1-3.14,0-3.2a1.87,1.87,0,0,0,0-.78c-.28,0-.4-.18-.57-.2.15-.17.3-.32.45-.48C667.76,3068.3,667.59,3067.53,667,3067.78Zm-11.45,44.93c-.39-.93-3.6-2.11-3.5-.45C653.14,3112.68,656.48,3114.83,655.57,3112.71Zm-6.88-3.05a3.45,3.45,0,0,0-2-.85c-1,0-.94.44-1.37,1.43a10.29,10.29,0,0,0,5.61.16c3.11-.52-.22-2.23-1.52-1.74C649.77,3109.37,649.36,3109.65,648.69,3109.66Zm9,.93c.37,0,.48-.5.91-.43,1,.17,1.41-.77,2-.78,1.3,0,3.58.61,4.66-.38-1.56-.59-2.49-.06-4.06-.18-1-.06-1,0-1.78.69-.41.36-.93-.42-1.4-.15-1,.58-3-1.19-4-.11-1.1,1.23,1.83.9,2.28,1.41C657.05,3110,657.2,3110.66,657.69,3110.59ZM659,3102l1.23,1.14c.48-.73,1-1,.47-1.7-.37-.53,0-.92.53-.81-.35-1.15-1.16-.71-1,.33C659.68,3099.48,659.12,3101.48,659,3102Zm-28.35-14c-.07.51.56.92.67,1.39.06.28-.44.41-.34.77s.26.78.37,1.19c.16.56.48.06.29,1,.67-.32.56,0,.76-.67,1.11,1,.92,3,1.06,4.46.13,1.24,2.55.25,3.15,0,.09.56.18,1.12.28,1.68,1.88-1.05,2.07-1.48,3.89-.33.29.17,1-.12,1.4,0s.52,1.23.65,1.72c1-.49,2-1,3-1.47-.2.66-.18,1.24.51,1.15,0-1.41.06-2.81.08-4.22s.37-1.34,1.34-2.2c1.32-1.16,1.31-1.15,1.18-3,0-.84.54-2.35,1.31-2.19,1.54.34,2.24.1.82-1.2-.34-.32-1.11-.78-1.34-1.23-.13-.27.31-.85.2-1.15-.59-1.69-1.2-1.57-1.15-3.54,0-.95,2-.94,2.54-1-.3-.41-.61-.84-.92-1.25.76-.21,1.5-.44,2.25-.63-.25-.68-.64-.59-1.27-.75s-.88-.93-1.19-1.33c-.43-.56-2-2.12-2.65-2s-2.13,2.43-2.61,2.95c-.85,1-.11,1.74-1.34,2.06-1.54.4-1.79.4-2.7,1.78-.64,1-1,2-2.1,2.38s-2.21.4-2.87,1.54c-.85,1.44-1.16,1.4,0,2.56-1.1-.28-3.29-.21-3.54-1.74-.46.27-.92.57-1.39.85C630.88,3086.37,630.76,3087.22,630.66,3088.07Zm33.36,25a3.52,3.52,0,0,1,1.42-1.44c1.07-.5,3.74-1.19,4.12-2.54a24.31,24.31,0,0,0-3,.34,7.11,7.11,0,0,0-1.37.29c-.24.12-.24.64-.52.77a9.81,9.81,0,0,0-2.53,1.36c-.79.73.47,1.13-.53,2C662.45,3113.72,663.48,3113.83,664,3113.09Zm-420.19-66.6c.49.08,1.28-.2,1.72,0s.2,1.69,1.09,1.38c.4-.14.4-1.54.76-1.79.64-.45.81.18,1,.17,1.14,0,1.93-.41,3.22-.41,1,0,.77.84,1.43-.27.27-.46-.71-1.05-1.16-1.15-1.06-.22-1.12-.22-1.65-1.27-.4-.77-.46-.25-1.15-.48-.52-.17-1.37-.72-1.88-.45a5.22,5.22,0,0,1-1.4.38c-1.57,0-2-.52-3.5.18,1.56.74,1.38,1.24,2.36,2.69-.94.7-4.89-.91-4.42.51C241.62,3047,242.17,3046.24,243.83,3046.49Zm122.25-133.32c1.18.33,1.91-.6,1.86-1.9.95.52,1.46-.43,2.13-1.08-.79-.53-.19-1.64-.59-1.89-.8-.46-1.43-1.06-2.38-.71,1.15-1.94-4.46-4.22-3.48-1.69-1.67-.16-2.12.68-3.73-.05.09.61.17,1.21.26,1.82-.63-.92-.83-1.68-1.89-1.71-.85,0-1.18.94-.9,1.73-.6-.64-1.14-1.7-2-1.5.71,1.69-.21.85-.67,1.6a17.24,17.24,0,0,0-.84,2,23,23,0,0,1-1.26-2,.73.73,0,0,0,.91-.77c0-.45-1-.64-1.22-.84-1.23-1.06-1.15-1.31-2.75-1.29.21.8.78.64,1.48.76.22,2.09-1.9-.23-2.56.58-.8,1,.65,1,.41,1.43s-.94.11-1.33-.13c0,.22,0,.45,0,.68-.6-.1-.48.09-1,.34,1.37.59,1.76.31,3.17-.24.66-.27,2,.4,2.73.56l-1.71.84a1.69,1.69,0,0,0,1.64.13c0,.16,0,.31.05.48-1.68-.05-3.34.63-4.85.61.25,1.24,3,.62,3.9.62-.49.55-.21,1,.48.89,0,.18-.07.36-.1.53l.52.06c-.41,1.2-2.44.82-1.93,2.2,1.33-.16,2.65-.34,4-.51.35,0,.66.91.95,1.1a6.36,6.36,0,0,0,1.79.39,4.16,4.16,0,0,0,3-.19c.52-.25.39-.7,1-.79l1.83-.26C363.71,2914.46,365.3,2913,366.08,2913.17Zm-13.86-26.38c-.24-1-1.26-3.31-.92-4.3.88-2.53,1.39-5.73,3.16-7.66,1.16-1.3,2.34-2.6,3.52-3.9.33-.36-.49-3.34-.57-3.84-.19-1.13-.07-2.93-1-3.58l-3.54-2.41,5.16-5c-1.82-1.23-3-1.72-3.87-3.83-.67-1.61,1.42-3.7,2.25-5.07.92-1.52,2.63-2.14,4-3.11a19.69,19.69,0,0,0,4-3.58l-1.34-1.15c1.58-.32,3.4-.38,4.83-1.21l5.4-3.11c-2-.78-4.16-2.06-6.22-2.43-1.49-.27-4.58-.59-5.61.69-.66.82-1.12,2-2.15,1.84l-3.73-.61c-1.42-.24-4.25,1.72-5.62,2.3.22-.41,2.86-4.58,1-4.64-1.65,0-3.22.27-4.6-.84l6.69-2.42c-4.35-1.91-8.22-3.88-12.84-4.52-5.17-.73-10.07-1.7-15.25-1.24l-5.55.49a7.14,7.14,0,0,0-2.49.22c-.89.51-1,2.55-2.17,2.34-1.48-.25-3-.52-4.44-.78-1.8-.31-4-1.23-5.66-.47l-7.52,3.44c2.36,1.52,5,2.63,6.5,5.16a82.91,82.91,0,0,0-12.57-3.68c-1.34-.27-3.28.42-4.63.59l-9.1,1.21c-1.32.18-3.41,0-4.64.65-1.72.88-3.44,1.78-5.17,2.66l-12.72,6.57c1.55,1.71,3.45,1.44,5.63,1.68l-1.41,3.59c-.52,1.33-.71,1.07-2.06,1.13a24.05,24.05,0,0,0-5.48,1.07l-7.43,2.14c-.59.17-.59,1.66-.71,2.27-.1.45,1,1.58,1.3,1.92.73,1,1.67,3,2.73,3.65l4.34,2.56c.73.43,2.77,2.2,3.6,2.09,1.64-.2,3.28-.42,4.92-.63,2.94-.38,5.52.22,8.46.71,1.51.25,3,.52,4.51.76.74.13,2.28,2.88,2.76,3.5,2,2.6,3.12,5.7,4.49,8.79.75,1.66,1,1.82.4,3.53s-1.44,2.58-.29,3.82,2.7,2,2.25,3.82-1.19,2.8,0,4.13c1.53,1.68,1.42,1.66,3.48,1.06,1.48-.45,3-.88,4.47-1.32l-.42,3.36c0,.37-1.44.72-1.74.83-1,.44-2.05.89-3.09,1.32-.23.1-.25,1.57-.28,1.82-.19,1.49-1,4.08-.52,5.51.76,2.11,1.52,4.22,2.27,6.35,1.22,3.43,3.38,6.22,5.3,9.23,1.14,1.79,2.27,3.57,3.42,5.35.56.89,2.17,1.06,3,1.38,1.83.68,3.64,1.35,5.46,2,.44.16,3,.22,3-.08q1.69-5.28,3.39-10.58c.9-2.83,1.89-5.58,2.92-8.35.55-1.51.48-1.54,1.87-2l5.47-1.79c1.14-.37,2.82-.58,3.84-1.26s2.18-2.71,3.08-3.83,1.11-1.63,2.23-1.92c1.71-.47,3.43-.92,5.14-1.38,2.46-.65,5.48-.91,7.71-2.28,2.79-1.71,5.57-3.4,8.35-5.12C352.6,2888.76,352.7,2888.83,352.22,2886.79Zm280.19,159.06c.52-.24,1.51-.26,1.62-1s.29-1.78,1.05-1.72c.15-.73-.07-1.29-.74-1.41,0,.17-.08.35-.11.51-1.94-1.09-2.89.7-4.25,1.57,0,1.37-.24,1.65.86,2.27a2,2,0,0,0,1.18.35C632.61,3046.42,632.06,3046,632.41,3045.85Zm-8.6,57.52c.35-1.76,0-4.08.53-5.66a1.71,1.71,0,0,0-2.88-1.77c1-1,0-1-.12-1.78-.08-.44-.15-1.94-.53-2.11s-1.59-.37-1.67-.93c-.14-.87.64-1.14.5-1.8-.18-1-1.48-.87-1.48-1.46,0-1.11-.41-.61-1.14-1.17s.13-.73-1.11-1c-.76-.13-1.28-.06-1.76-.71-.87-1.21-2.2-1.6-3.27-2.62a27.4,27.4,0,0,1-3.09-2.81c-1-1.42-.7-2.13-2.56-2.34-.58-.07-3.37-1.13-3.65-.72-.45.66,1.77,3.45,2.16,3.78.86.77,2.72,1.12,2.77,2.72.07,1.78,2.14,1.43,2.57,3.06.26.95.52,1.92.78,2.89.18.66.81.43,1.22.86,1,1,1.62,3.55,2.24,4.9a12.43,12.43,0,0,0,2.41,3.05c1.79,2,3.6,3.91,5.64,5.79,0-.4.15-.82.15-1.21C622.47,3103.55,623.05,3101.82,623.81,3103.37Zm4.71-8c-1.14-.9-.71,1.43-.63,1.81C629.4,3097.71,629.47,3096.16,628.52,3095.41Zm12.15,12.16a1.78,1.78,0,0,1-2.22-2c-.74.34-2.65.16-3.15-.48s-.95-.37-1.21.47c-.14.48-.72.2-1.13.16-1.6-.17-2.73.17-3.62-1.34-.13-.23-2.3-.72-2.76-1-.26.76-.9.29-1.52.13s-.66.12-1.12.65c-1.32,1.54.44,1.67,1.56,1.93,0,.21-.09.43-.13.63,1.33.26,2.57,1,3.81,1.27.65.13,1.41-.35,2.07-.3a11.9,11.9,0,0,1,2,.72,7.57,7.57,0,0,0,1.68.57c.47.05.92.13,1.38.17.29,0,.4-.37.62-.35,1.35.12,1.89.57,3.27.31.83.35,1.67.72,2.49,1.09C641.69,3108.92,643,3107.05,640.67,3107.57Zm-18.11-13.29a1.11,1.11,0,0,0,1,.24c.25,0,.41.57.64.83s.13.59.53.93a1.8,1.8,0,0,0,1.22.53c-.35-.42-.28-.82.2-1.22-1.82.07-.89-2.64-2.36-2.51,0,.22.06.41.1.61C623.28,3092.74,623,3093.69,622.56,3094.28Z"/></clipPath><clipPath id="clip-path-2" transform="translate(-36 -2818)"><rect class="cls-2" width="1680" height="6036"/></clipPath></defs><title>Thermax_Map</title><g id="Layer_2" data-name="Layer 2"><g id="Map"><g class="cls-3"><g class="cls-4"><rect class="cls-5" width="775" height="423"/></g></g></g></g></svg>